<?xml version="1.0" encoding="UTF-8"?>
<!DOCTYPE svg PUBLIC "-//W3C//DTD SVG 1.1//EN" "http://www.w3.org/Graphics/SVG/1.1/DTD/svg11.dtd">
<svg xmlns="http://www.w3.org/2000/svg" version="1.1" width="402px" height="398px" style="shape-rendering:geometricPrecision; text-rendering:geometricPrecision; image-rendering:optimizeQuality; fill-rule:evenodd; clip-rule:evenodd" xmlns:xlink="http://www.w3.org/1999/xlink">
<g><path style="opacity:0.958" fill="#c9c9c9" d="M 167.5,-0.5 C 173.167,-0.5 178.833,-0.5 184.5,-0.5C 195.306,0.362792 199.973,6.36279 198.5,17.5C 197.288,19.9066 195.788,22.24 194,24.5C 193.26,25.7494 193.427,26.7494 194.5,27.5C 198.51,28.8934 202.51,30.3934 206.5,32C 208.113,34.2276 208.78,36.7276 208.5,39.5C 204.113,47.6796 197.78,49.5129 189.5,45C 185.924,41.0405 181.59,39.0405 176.5,39C 174.875,42.4199 172.875,45.5866 170.5,48.5C 167.916,49.3928 165.249,49.7261 162.5,49.5C 160.156,39.2666 157.656,28.9333 155,18.5C 154.333,13.8333 154.333,9.16667 155,4.5C 155.5,2.66667 156.667,1.5 158.5,1C 161.695,0.819481 164.695,0.319481 167.5,-0.5 Z M 180.5,15.5 C 179.452,20.9368 176.119,22.9368 170.5,21.5C 170.5,19.5 170.5,17.5 170.5,15.5C 172.434,14.4684 174.6,13.8017 177,13.5C 178.699,13.3866 179.866,14.0532 180.5,15.5 Z"/></g>
<g><path style="opacity:0.951" fill="#c9c9c9" d="M 250.5,13.5 C 248.107,14.3527 246.774,16.0194 246.5,18.5C 246.5,19.5 246.5,20.5 246.5,21.5C 249.358,21.4046 251.691,20.2379 253.5,18C 260.235,16.3977 263.902,19.0644 264.5,26C 264.176,29.8098 263.176,33.3098 261.5,36.5C 256.53,40.908 252.197,40.408 248.5,35C 246.649,34.1628 244.816,33.3295 243,32.5C 242.26,33.7494 242.427,34.7494 243.5,35.5C 243.338,37.5273 243.505,39.5273 244,41.5C 246.294,43.6475 246.794,45.9809 245.5,48.5C 240.052,53.3426 234.052,53.8426 227.5,50C 225.93,48.6032 224.596,47.1032 223.5,45.5C 222.58,40.7811 224.247,37.4478 228.5,35.5C 230.048,35.1788 230.715,34.1788 230.5,32.5C 227.654,32.0301 225.321,32.8634 223.5,35C 217.429,36.7452 213.763,34.5786 212.5,28.5C 210.843,17.8306 215.176,13.164 225.5,14.5C 226.469,17.3017 228.302,19.3017 231,20.5C 232.188,19.4366 232.688,18.1033 232.5,16.5C 232.206,13.2459 230.873,10.5792 228.5,8.5C 228.081,5.67546 229.081,3.50879 231.5,2C 239.076,-1.02883 245.576,0.471167 251,6.5C 251.796,9.03851 251.629,11.3718 250.5,13.5 Z"/></g>
<g><path style="opacity:0.951" fill="#c9c9c9" d="M 141.5,12.5 C 141.509,14.3084 141.009,15.9751 140,17.5C 137.154,19.2567 134.488,21.2567 132,23.5C 131.235,25.0657 131.402,26.3991 132.5,27.5C 133.167,27.5 133.5,27.1667 133.5,26.5C 136.141,25.7369 138.808,25.5702 141.5,26C 143.751,26.7475 145.084,28.2475 145.5,30.5C 142.899,33.6043 140.066,36.6043 137,39.5C 136.472,40.816 136.972,41.4827 138.5,41.5C 139.117,41.6107 139.617,41.944 140,42.5C 143.903,40.2952 148.07,39.4619 152.5,40C 153.823,40.8159 154.489,41.9826 154.5,43.5C 156.182,49.9608 153.849,54.1275 147.5,56C 143.239,57.3626 138.905,57.6959 134.5,57C 131.447,55.4734 128.447,53.9734 125.5,52.5C 125.167,51.5 124.5,50.8333 123.5,50.5C 113.024,39.7916 111.857,28.125 120,15.5C 124.898,9.7993 131.065,6.96596 138.5,7C 140.607,8.26351 141.607,10.0968 141.5,12.5 Z"/></g>
<g><path style="opacity:0.802" fill="#fafafa" d="M 228.5,8.5 C 230.873,10.5792 232.206,13.2459 232.5,16.5C 229.863,14.5182 228.53,11.8515 228.5,8.5 Z"/></g>
<g><path style="opacity:0.895" fill="#fafafa" d="M 180.5,15.5 C 179.866,14.0532 178.699,13.3866 177,13.5C 174.6,13.8017 172.434,14.4684 170.5,15.5C 169.209,14.4583 169.209,13.2917 170.5,12C 173.5,11.3333 176.5,11.3333 179.5,12C 181.311,13.0407 181.645,14.2073 180.5,15.5 Z"/></g>
<g><path style="opacity:0.786" fill="#fcfcfc" d="M 141.5,12.5 C 142.622,14.2884 142.789,16.2884 142,18.5C 138.62,20.717 135.787,23.3837 133.5,26.5C 132.833,26.5 132.5,26.8333 132.5,27.5C 131.402,26.3991 131.235,25.0657 132,23.5C 134.488,21.2567 137.154,19.2567 140,17.5C 141.009,15.9751 141.509,14.3084 141.5,12.5 Z"/></g>
<g><path style="opacity:0.689" fill="#fcfcfc" d="M 250.5,13.5 C 249.92,15.7488 248.587,17.4154 246.5,18.5C 246.774,16.0194 248.107,14.3527 250.5,13.5 Z"/></g>
<g><path style="opacity:0.915" fill="#c9c9c9" d="M 285.5,32.5 C 277.199,39.2323 272.533,37.2323 271.5,26.5C 272.674,18.9195 277.007,15.7529 284.5,17C 287.111,18.609 288.444,20.9423 288.5,24C 288.366,27.2412 287.366,30.0745 285.5,32.5 Z"/></g>
<g><path style="opacity:0.67" fill="#f9f9f9" d="M 198.5,17.5 C 198.269,21.2927 196.935,24.6261 194.5,27.5C 193.427,26.7494 193.26,25.7494 194,24.5C 195.788,22.24 197.288,19.9066 198.5,17.5 Z"/></g>
<g><path style="opacity:0.965" fill="#c9c9c9" d="M 109.5,31.5 C 110.451,45.1553 110.618,58.822 110,72.5C 106.901,76.9659 102.735,78.4659 97.5,77C 86.4661,73.3148 75.7994,68.8148 65.5,63.5C 65.0269,62.0937 64.0269,61.427 62.5,61.5C 59.746,59.9472 58.9126,57.6139 60,54.5C 63.9277,46.9529 70.0944,43.7862 78.5,45C 82.4467,47.2798 86.1134,49.9465 89.5,53C 91.0249,54.0086 92.6916,54.5086 94.5,54.5C 94.1234,47.6572 92.79,40.9906 90.5,34.5C 93.6596,25.6711 99.4929,22.6711 108,25.5C 109.128,27.3453 109.628,29.3453 109.5,31.5 Z"/></g>
<g><path style="opacity:0.696" fill="#fdfdfd" d="M 271.5,26.5 C 272.533,37.2323 277.199,39.2323 285.5,32.5C 283.434,37.2584 279.768,39.0918 274.5,38C 270.691,34.7539 269.691,30.9205 271.5,26.5 Z"/></g>
<g><path style="opacity:0.68" fill="#fafafa" d="M 145.5,30.5 C 146.686,32.1942 146.519,33.8608 145,35.5C 142.336,36.9984 140.17,38.9984 138.5,41.5C 136.972,41.4827 136.472,40.816 137,39.5C 140.066,36.6043 142.899,33.6043 145.5,30.5 Z"/></g>
<g><path style="opacity:0.831" fill="#fbfbfb" d="M 212.5,28.5 C 213.763,34.5786 217.429,36.7452 223.5,35C 225.321,32.8634 227.654,32.0301 230.5,32.5C 230.715,34.1788 230.048,35.1788 228.5,35.5C 226.737,34.6655 225.07,35.1655 223.5,37C 216.199,38.8655 212.532,36.0322 212.5,28.5 Z"/></g>
<g><path style="opacity:0.78" fill="#fdfdfd" d="M 261.5,36.5 C 260.578,40.0833 258.244,41.7499 254.5,41.5C 251.003,41.8397 248.669,40.3397 247.5,37C 246.255,36.2086 244.922,35.7086 243.5,35.5C 242.427,34.7494 242.26,33.7494 243,32.5C 244.816,33.3295 246.649,34.1628 248.5,35C 252.197,40.408 256.53,40.908 261.5,36.5 Z"/></g>
<g><path style="opacity:0.961" fill="#c9c9c9" d="M 334.5,61.5 C 331.478,62.9257 328.312,63.9257 325,64.5C 323.833,64.3333 322.667,64.1667 321.5,64C 318.133,60.2974 314.466,56.964 310.5,54C 307.833,53.3333 305.167,53.3333 302.5,54C 301.058,54.3768 300.058,55.2101 299.5,56.5C 298.091,58.3049 297.591,60.3049 298,62.5C 302.867,67.0323 307.367,71.8656 311.5,77C 310.837,78.5185 309.837,79.6851 308.5,80.5C 306.973,80.427 305.973,81.0937 305.5,82.5C 302.606,83.9608 299.606,84.7942 296.5,85C 290.14,79.9801 285.307,73.8134 282,66.5C 281.436,61.8065 281.603,57.1398 282.5,52.5C 285.798,43.7133 292.132,38.2133 301.5,36C 320.075,31.7768 332.075,38.6101 337.5,56.5C 337.714,58.9418 336.714,60.6085 334.5,61.5 Z"/></g>
<g><path style="opacity:0.754" fill="#fbfbfb" d="M 208.5,39.5 C 206.795,47.6856 201.795,50.8523 193.5,49C 188.657,46.1506 183.823,43.3172 179,40.5C 177.739,40.7591 176.739,41.4258 176,42.5C 174.753,45.3286 173.253,47.9952 171.5,50.5C 168.039,52.1876 165.039,51.8542 162.5,49.5C 165.249,49.7261 167.916,49.3928 170.5,48.5C 172.875,45.5866 174.875,42.4199 176.5,39C 181.59,39.0405 185.924,41.0405 189.5,45C 197.78,49.5129 204.113,47.6796 208.5,39.5 Z"/></g>
<g><path style="opacity:0.923" fill="#c9c9c9" d="M 273.5,57.5 C 264.551,64.2553 259.884,61.922 259.5,50.5C 262.375,41.7946 267.542,39.7946 275,44.5C 277.104,49.1926 276.604,53.5259 273.5,57.5 Z"/></g>
<g><path style="opacity:0.763" fill="#fbfbfb" d="M 223.5,45.5 C 224.596,47.1032 225.93,48.6032 227.5,50C 234.052,53.8426 240.052,53.3426 245.5,48.5C 245.262,51.1483 243.928,52.9817 241.5,54C 235.774,55.1044 230.44,54.1044 225.5,51C 224.139,49.4157 223.472,47.5824 223.5,45.5 Z"/></g>
<g><path style="opacity:0.578" fill="#fdfdfd" d="M 123.5,50.5 C 124.5,50.8333 125.167,51.5 125.5,52.5C 124.167,52.5 123.5,51.8333 123.5,50.5 Z"/></g>
<g><path style="opacity:0.768" fill="#fbfbfb" d="M 154.5,43.5 C 155.641,46.6399 155.808,49.9733 155,53.5C 144.742,61.8161 134.909,61.4827 125.5,52.5C 128.447,53.9734 131.447,55.4734 134.5,57C 138.905,57.6959 143.239,57.3626 147.5,56C 153.849,54.1275 156.182,49.9608 154.5,43.5 Z"/></g>
<g><path style="opacity:0.701" fill="#fcfcfc" d="M 259.5,50.5 C 259.884,61.922 264.551,64.2553 273.5,57.5C 272.641,60.4521 270.641,62.2854 267.5,63C 263.316,64.1655 260.483,62.6655 259,58.5C 258.199,55.633 258.366,52.9664 259.5,50.5 Z"/></g>
<g><path style="opacity:0.8" fill="#fcfcfc" d="M 334.5,61.5 C 330.437,65.8523 325.437,67.3523 319.5,66C 316.833,62 313.5,58.6667 309.5,56C 306.112,55.3412 302.779,55.5078 299.5,56.5C 300.058,55.2101 301.058,54.3768 302.5,54C 305.167,53.3333 307.833,53.3333 310.5,54C 314.466,56.964 318.133,60.2974 321.5,64C 322.667,64.1667 323.833,64.3333 325,64.5C 328.312,63.9257 331.478,62.9257 334.5,61.5 Z"/></g>
<g><path style="opacity:0.783" fill="#fafafa" d="M 282.5,52.5 C 281.603,57.1398 281.436,61.8065 282,66.5C 285.307,73.8134 290.14,79.9801 296.5,85C 299.606,84.7942 302.606,83.9608 305.5,82.5C 303.11,84.7837 300.276,86.4504 297,87.5C 289.846,82.6813 284.513,76.348 281,68.5C 280.333,64.1667 280.333,59.8333 281,55.5C 281.232,54.2625 281.732,53.2625 282.5,52.5 Z"/></g>
<g><path style="opacity:0.949" fill="#c9c9c9" d="M 93.5,86.5 C 93.0953,93.0443 89.9286,97.3776 84,99.5C 82.175,99.0566 80.3417,98.7233 78.5,98.5C 77.5084,98.6716 76.8417,98.3382 76.5,97.5C 76.0269,96.0937 75.0269,95.427 73.5,95.5C 71.847,95.3404 70.5137,94.6737 69.5,93.5C 69.0269,92.0937 68.0269,91.427 66.5,91.5C 65.5084,91.6716 64.8417,91.3382 64.5,90.5C 64.0269,89.0937 63.0269,88.427 61.5,88.5C 61.0269,87.0937 60.0269,86.427 58.5,86.5C 58.0269,85.0937 57.0269,84.427 55.5,84.5C 50.2478,82.3725 45.9144,79.0391 42.5,74.5C 44.3784,68.624 48.0451,64.2907 53.5,61.5C 55.6096,62.0544 57.6096,62.8877 59.5,64C 70.004,72.7521 81.3373,80.2521 93.5,86.5 Z"/></g>
<g><path style="opacity:0.859" fill="#f3f3f3" d="M 62.5,61.5 C 64.0269,61.427 65.0269,62.0937 65.5,63.5C 63.9731,63.573 62.9731,62.9063 62.5,61.5 Z"/></g>
<g><path style="opacity:0.67" fill="#fbfbfb" d="M 109.5,31.5 C 111.077,43.2973 112.077,55.2973 112.5,67.5C 111.411,78.0556 105.744,81.5556 95.5,78C 84.7668,74.4654 74.7668,69.632 65.5,63.5C 75.7994,68.8148 86.4661,73.3148 97.5,77C 102.735,78.4659 106.901,76.9659 110,72.5C 110.618,58.822 110.451,45.1553 109.5,31.5 Z"/></g>
<g><path style="opacity:0.961" fill="#c9c9c9" d="M 217.5,92.5 C 213.019,95.2419 208.353,97.7419 203.5,100C 201.536,101.451 200.203,103.284 199.5,105.5C 199.347,109.875 200.68,113.708 203.5,117C 215.79,117.77 227.79,119.937 239.5,123.5C 239.88,125.698 239.213,127.365 237.5,128.5C 236.5,128.833 235.833,129.5 235.5,130.5C 232.636,133.697 230.636,137.364 229.5,141.5C 230.73,146.359 232.064,151.192 233.5,156C 233.156,157.365 232.489,158.532 231.5,159.5C 235.459,160.66 239.459,160.827 243.5,160C 244.823,159.184 245.489,158.017 245.5,156.5C 244.581,153.911 242.914,151.911 240.5,150.5C 240.573,148.973 239.906,147.973 238.5,147.5C 235.954,134.167 241.62,126.667 255.5,125C 271.813,121.907 283.646,127.74 291,142.5C 294.84,154.031 297.006,165.865 297.5,178C 295.24,209.523 292.74,241.023 290,272.5C 289.436,276.127 287.936,279.293 285.5,282C 281.494,283.421 278.828,282.254 277.5,278.5C 276.828,274.812 275.995,271.145 275,267.5C 274.5,248.17 274.333,228.836 274.5,209.5C 275.811,205.317 275.811,200.984 274.5,196.5C 273.614,197.325 273.281,198.325 273.5,199.5C 273.5,201.5 273.5,203.5 273.5,205.5C 271.727,218.986 270.227,232.652 269,246.5C 262.452,250.164 258.619,248.164 257.5,240.5C 255.45,232.899 255.116,225.233 256.5,217.5C 258.104,216.713 258.771,215.38 258.5,213.5C 258.263,212.209 258.596,211.209 259.5,210.5C 262.013,206.622 263.346,202.289 263.5,197.5C 265.806,193.915 267.139,189.915 267.5,185.5C 269.3,184.105 269.634,182.439 268.5,180.5C 267.893,180.624 267.56,180.957 267.5,181.5C 266.206,182.29 265.039,183.29 264,184.5C 262.527,188.779 260.527,192.779 258,196.5C 255.984,198.608 253.817,198.942 251.5,197.5C 251.5,195.167 251.5,192.833 251.5,190.5C 251.657,189.127 251.49,187.793 251,186.5C 248.211,189.979 246.878,193.979 247,198.5C 245.5,200 244,201.5 242.5,203C 241.072,203.579 239.738,203.412 238.5,202.5C 238.027,201.094 237.027,200.427 235.5,200.5C 234.5,200.167 233.833,199.5 233.5,198.5C 232.833,197.167 231.833,196.167 230.5,195.5C 221.713,188.258 217.547,178.925 218,167.5C 221.948,164.608 222.448,161.275 219.5,157.5C 218.352,154.913 216.685,153.913 214.5,154.5C 207.957,160.376 204.624,167.709 204.5,176.5C 205.102,194.51 208.768,211.843 215.5,228.5C 216.221,230.382 217.221,230.715 218.5,229.5C 218.334,224.821 218.501,220.155 219,215.5C 219.593,205.788 224.093,203.288 232.5,208C 238.288,213.077 242.455,219.244 245,226.5C 244.84,242.991 250.34,257.158 261.5,269C 259.891,275.804 255.891,277.804 249.5,275C 247.004,273.334 244.671,271.5 242.5,269.5C 235.72,260.677 231.553,250.677 230,239.5C 226.46,236.968 224.627,238.134 224.5,243C 225.508,246.848 227.175,250.348 229.5,253.5C 229.427,255.027 230.094,256.027 231.5,256.5C 234.276,259.51 233.942,262.344 230.5,265C 225.277,266.445 221.11,264.945 218,260.5C 210.801,251.442 205.134,241.442 201,230.5C 195.858,216.407 191.524,202.073 188,187.5C 186.842,187.002 186.009,186.169 185.5,185C 184.896,182.416 184.063,179.916 183,177.5C 182.617,178.056 182.117,178.389 181.5,178.5C 179.596,178.738 178.262,179.738 177.5,181.5C 173.009,184.016 168.843,183.349 165,179.5C 164.219,178.271 163.719,176.938 163.5,175.5C 164.84,171.149 166.173,166.816 167.5,162.5C 167.631,161.761 167.464,161.094 167,160.5C 165.519,161.471 164.685,162.804 164.5,164.5C 163.094,164.973 162.427,165.973 162.5,167.5C 160.75,168.659 159.75,170.326 159.5,172.5C 157.958,173.301 156.292,173.634 154.5,173.5C 153.053,172.866 152.387,171.699 152.5,170C 153.077,167.863 153.41,165.696 153.5,163.5C 154.167,163.5 154.5,163.167 154.5,162.5C 154.5,161.833 154.5,161.167 154.5,160.5C 153.094,160.973 152.427,161.973 152.5,163.5C 149.112,166.597 146.445,170.264 144.5,174.5C 143.5,174.5 142.5,174.5 141.5,174.5C 141.336,171.813 141.503,169.146 142,166.5C 144.303,162.061 146.47,157.561 148.5,153C 148.257,152.098 147.923,151.265 147.5,150.5C 146.923,149.227 146.257,149.227 145.5,150.5C 144.081,152.336 142.914,154.336 142,156.5C 137.667,169.167 133.333,181.833 129,194.5C 126.437,200.722 123.603,206.722 120.5,212.5C 117.74,215.321 115.24,214.987 113,211.5C 111.517,208.298 111.183,204.964 112,201.5C 113.103,196.628 114.77,191.962 117,187.5C 123.651,175.865 129.484,163.865 134.5,151.5C 135.167,151.5 135.5,151.167 135.5,150.5C 136.087,149.233 136.087,148.233 135.5,147.5C 121.008,168.84 107.508,190.84 95,213.5C 91.2712,217.398 87.4379,221.065 83.5,224.5C 81.1487,226.62 78.482,227.287 75.5,226.5C 74.3861,225.277 74.2195,223.944 75,222.5C 81.8222,214.188 88.1556,205.521 94,196.5C 105.08,176.005 116.413,155.672 128,135.5C 132.458,128.708 137.958,122.875 144.5,118C 150.482,115.069 156.815,113.403 163.5,113C 166.472,109.555 168.806,105.722 170.5,101.5C 171.525,101.103 171.692,100.437 171,99.5C 166.631,94.9633 162.131,90.6299 157.5,86.5C 156.262,86.19 156.262,85.69 157.5,85C 164.606,84.9263 171.606,84.2597 178.5,83C 183.01,77.6582 187.677,72.4916 192.5,67.5C 195.134,73.3594 197.468,79.3594 199.5,85.5C 204.833,86.5 210.167,87.5 215.5,88.5C 216.086,88.2907 216.586,87.9574 217,87.5C 217.494,89.1341 217.66,90.8008 217.5,92.5 Z M 196.5,120.5 C 196.628,122.655 196.128,124.655 195,126.5C 192.667,128.833 190.333,131.167 188,133.5C 187.22,135.387 187.387,137.054 188.5,138.5C 188.5,139.167 188.5,139.833 188.5,140.5C 186.608,139.298 184.774,137.965 183,136.5C 179.842,128.844 175.676,121.844 170.5,115.5C 173.272,114.409 176.105,113.409 179,112.5C 184.537,115.852 190.37,118.519 196.5,120.5 Z M 199.5,137.5 C 201.325,140.862 200.492,143.195 197,144.5C 193.785,143.808 190.952,142.474 188.5,140.5C 192.464,140.511 196.131,139.511 199.5,137.5 Z"/></g>
<g><path style="opacity:0.958" fill="#c9c9c9" d="M 343.5,132.5 C 337.977,132.822 333.477,130.822 330,126.5C 329.333,125.167 329.333,123.833 330,122.5C 333.71,116.658 335.377,110.325 335,103.5C 333.421,101.959 331.587,100.792 329.5,100C 323.342,99.2706 317.342,99.6039 311.5,101C 306.833,98.1604 304.5,93.9938 304.5,88.5C 305.771,86.0661 307.771,84.5661 310.5,84C 324.966,80.3656 339.632,78.699 354.5,79C 362.783,81.3991 365.283,86.5658 362,94.5C 356.472,106.751 351.139,119.084 346,131.5C 345.329,132.252 344.496,132.586 343.5,132.5 Z M 339.5,91.5 C 341.167,91.5 342.833,91.5 344.5,91.5C 344.567,92.9587 344.234,94.2921 343.5,95.5C 341.167,95.1667 339.833,93.8333 339.5,91.5 Z"/></g>
<g><path style="opacity:0.031" fill="#fbfbfb" d="M 308.5,80.5 C 308.027,81.9063 307.027,82.573 305.5,82.5C 305.973,81.0937 306.973,80.427 308.5,80.5 Z"/></g>
<g><path style="opacity:0.624" fill="#e5e5e5" d="M 55.5,84.5 C 57.0269,84.427 58.0269,85.0937 58.5,86.5C 56.9731,86.573 55.9731,85.9063 55.5,84.5 Z"/></g>
<g><path style="opacity:0.726" fill="#fbfbfb" d="M 93.5,86.5 C 94.2891,86.7828 94.9558,87.2828 95.5,88C 94.6033,92.0264 92.9366,95.6931 90.5,99C 86.2652,102.354 82.2652,102.187 78.5,98.5C 80.3417,98.7233 82.175,99.0566 84,99.5C 89.9286,97.3776 93.0953,93.0443 93.5,86.5 Z"/></g>
<g><path style="opacity:0.955" fill="#c9c9c9" d="M 76.5,105.5 C 77.0288,109.192 76.0288,112.358 73.5,115C 65.6845,115.697 58.6845,118.363 52.5,123C 53.2438,124.039 54.2438,124.539 55.5,124.5C 57.8185,124.992 59.8185,125.992 61.5,127.5C 64.4059,131.819 63.7392,135.652 59.5,139C 56.3718,139.841 53.3718,140.675 50.5,141.5C 39.091,136.963 28.4243,131.13 18.5,124C 17.7069,122.915 17.0402,121.748 16.5,120.5C 17.9323,115.799 20.2657,111.633 23.5,108C 26.5214,108.418 29.3547,109.585 32,111.5C 34.5886,110.792 36.7553,109.459 38.5,107.5C 35.4668,105.302 32.3001,103.302 29,101.5C 28.0815,94.3808 31.2482,89.8808 38.5,88C 40.8333,87.3333 43.1667,87.3333 45.5,88C 55.0097,93.2552 64.6764,98.2552 74.5,103C 75.3805,103.708 76.0472,104.542 76.5,105.5 Z"/></g>
<g><path style="opacity:0.616" fill="#e9e9e9" d="M 58.5,86.5 C 60.0269,86.427 61.0269,87.0937 61.5,88.5C 59.9731,88.573 58.9731,87.9063 58.5,86.5 Z"/></g>
<g><path style="opacity:0.008" fill="#f7f7f7" d="M 157.5,86.5 C 162.131,90.6299 166.631,94.9633 171,99.5C 171.692,100.437 171.525,101.103 170.5,101.5C 165.771,96.7757 161.437,91.7757 157.5,86.5 Z"/></g>
<g><path style="opacity:0.553" fill="#eeeeee" d="M 61.5,88.5 C 63.0269,88.427 64.0269,89.0937 64.5,90.5C 62.9731,90.573 61.9731,89.9063 61.5,88.5 Z"/></g>
<g><path style="opacity:0.727" fill="#f8f8f8" d="M 343.5,95.5 C 344.234,94.2921 344.567,92.9587 344.5,91.5C 342.833,91.5 341.167,91.5 339.5,91.5C 339.611,90.8826 339.944,90.3826 340.5,90C 342.473,89.5045 344.473,89.3379 346.5,89.5C 346.736,92.2257 345.903,94.559 344,96.5C 343.601,96.2716 343.435,95.9382 343.5,95.5 Z"/></g>
<g><path style="opacity:0.6" fill="#f0f0f0" d="M 66.5,91.5 C 68.0269,91.427 69.0269,92.0937 69.5,93.5C 67.9731,93.573 66.9731,92.9063 66.5,91.5 Z"/></g>
<g><path style="opacity:0.333" fill="#f5f5f5" d="M 73.5,95.5 C 75.0269,95.427 76.0269,96.0937 76.5,97.5C 74.9731,97.573 73.9731,96.9063 73.5,95.5 Z"/></g>
<g><path style="opacity:0.641" fill="#fafafa" d="M 217.5,92.5 C 217.586,93.4959 217.252,94.3292 216.5,95C 210.419,97.9323 204.752,101.432 199.5,105.5C 200.203,103.284 201.536,101.451 203.5,100C 208.353,97.7419 213.019,95.2419 217.5,92.5 Z"/></g>
<g><path style="opacity:0.828" fill="#fcfcfc" d="M 304.5,88.5 C 304.5,93.9938 306.833,98.1604 311.5,101C 317.342,99.6039 323.342,99.2706 329.5,100C 331.587,100.792 333.421,101.959 335,103.5C 335.377,110.325 333.71,116.658 330,122.5C 329.333,123.833 329.333,125.167 330,126.5C 333.477,130.822 337.977,132.822 343.5,132.5C 336.967,134.373 331.8,132.373 328,126.5C 329.313,121.504 330.979,116.504 333,111.5C 334.458,107.219 333.292,104.053 329.5,102C 327.091,101.065 324.591,100.565 322,100.5C 317.623,102.03 313.123,102.53 308.5,102C 304.006,98.2399 302.673,93.7399 304.5,88.5 Z"/></g>
<g><path style="opacity:0.758" fill="#fbfbfb" d="M 76.5,105.5 C 79.2196,109.087 78.8863,112.587 75.5,116C 69.7094,117.198 64.0428,118.865 58.5,121C 56.5743,121.422 55.5743,122.589 55.5,124.5C 54.2438,124.539 53.2438,124.039 52.5,123C 58.6845,118.363 65.6845,115.697 73.5,115C 76.0288,112.358 77.0288,109.192 76.5,105.5 Z"/></g>
<g><path style="opacity:0.949" fill="#c9c9c9" d="M 385.5,156.5 C 381.836,152.668 378.336,148.668 375,144.5C 373.052,145.109 371.218,145.776 369.5,146.5C 364.701,148.733 360.035,151.233 355.5,154C 352.607,155.149 349.607,155.649 346.5,155.5C 344.193,154.023 342.36,152.023 341,149.5C 340.501,145.848 340.335,142.182 340.5,138.5C 349.119,133.631 358.452,130.964 368.5,130.5C 369.675,130.719 370.675,130.386 371.5,129.5C 369.533,125.703 367.366,122.036 365,118.5C 364.505,116.527 364.338,114.527 364.5,112.5C 372.744,107.321 379.244,108.988 384,117.5C 389.078,125.657 393.078,134.324 396,143.5C 397.931,152.079 394.431,156.412 385.5,156.5 Z"/></g>
<g><path style="opacity:0.664" fill="#fafafa" d="M 196.5,120.5 C 190.37,118.519 184.537,115.852 179,112.5C 176.105,113.409 173.272,114.409 170.5,115.5C 169.262,115.19 169.262,114.69 170.5,114C 173.208,112.931 175.875,111.764 178.5,110.5C 185.061,114.084 191.061,117.417 196.5,120.5 Z"/></g>
<g><path style="opacity:0.767" fill="#fafafa" d="M 364.5,112.5 C 364.338,114.527 364.505,116.527 365,118.5C 367.366,122.036 369.533,125.703 371.5,129.5C 370.675,130.386 369.675,130.719 368.5,130.5C 366.079,125.822 363.746,120.989 361.5,116C 361.978,114.358 362.978,113.191 364.5,112.5 Z"/></g>
<g><path style="opacity:0.715" fill="#f7f7f7" d="M 206.5,126.5 C 205.209,126.263 204.209,126.596 203.5,127.5C 201.493,128.679 201.16,128.179 202.5,126C 204.066,125.235 205.399,125.402 206.5,126.5 Z"/></g>
<g><path style="opacity:0.691" fill="#fbfbfb" d="M 61.5,127.5 C 63.4109,127.574 64.5776,128.574 65,130.5C 65.9546,135.423 64.1212,138.923 59.5,141C 56.5184,141.498 53.5184,141.665 50.5,141.5C 53.3718,140.675 56.3718,139.841 59.5,139C 63.7392,135.652 64.4059,131.819 61.5,127.5 Z"/></g>
<g><path style="opacity:0.959" fill="#c9c9c9" d="M 18.5,129.5 C 18.9731,130.906 19.9731,131.573 21.5,131.5C 26.5211,138.521 32.5211,144.521 39.5,149.5C 40.2623,151.262 41.5956,152.262 43.5,152.5C 43.9731,153.906 44.9731,154.573 46.5,154.5C 47.4916,154.328 48.1583,154.662 48.5,155.5C 53.2133,162.212 52.2133,168.046 45.5,173C 33.7925,180.949 21.1258,186.449 7.5,189.5C 5.80081,189.66 4.13414,189.494 2.5,189C 1.60064,187.348 0.60064,185.848 -0.5,184.5C -0.5,181.5 -0.5,178.5 -0.5,175.5C 0.197963,173.333 1.5313,171.5 3.5,170C 9.28428,167.386 15.2843,165.386 21.5,164C 28.3243,162.072 28.9909,159.072 23.5,155C 17.4595,152.119 11.2928,149.619 5,147.5C 4.02178,139.952 6.52178,133.786 12.5,129C 14.5976,128.322 16.5976,128.489 18.5,129.5 Z"/></g>
<g><path style="opacity:0.176" fill="#f7f7f7" d="M 18.5,129.5 C 20.0269,129.427 21.0269,130.094 21.5,131.5C 19.9731,131.573 18.9731,130.906 18.5,129.5 Z"/></g>
<g><path style="opacity:0.004" fill="#f8f8f8" d="M 237.5,128.5 C 237.5,129.833 236.833,130.5 235.5,130.5C 235.833,129.5 236.5,128.833 237.5,128.5 Z"/></g>
<g><path style="opacity:0.615" fill="#fbfbfb" d="M 21.5,131.5 C 28.4789,136.479 34.4789,142.479 39.5,149.5C 32.5211,144.521 26.5211,138.521 21.5,131.5 Z"/></g>
<g><path style="opacity:0.528" fill="#f9f9f9" d="M 199.5,137.5 C 196.131,139.511 192.464,140.511 188.5,140.5C 188.5,139.833 188.5,139.167 188.5,138.5C 191.988,139.355 195.322,138.689 198.5,136.5C 199.107,136.624 199.44,136.957 199.5,137.5 Z"/></g>
<g><path style="opacity:0.8" fill="#fafafa" d="M 340.5,138.5 C 340.335,142.182 340.501,145.848 341,149.5C 342.36,152.023 344.193,154.023 346.5,155.5C 342.91,155.456 340.41,153.789 339,150.5C 338.833,148.5 338.667,146.5 338.5,144.5C 338.539,142.048 339.206,140.048 340.5,138.5 Z"/></g>
<g><path style="opacity:0.724" fill="#fcfcfc" d="M 385.5,156.5 C 384.883,156.611 384.383,156.944 384,157.5C 380.651,154.318 377.484,150.985 374.5,147.5C 372.955,146.548 371.288,146.215 369.5,146.5C 371.218,145.776 373.052,145.109 375,144.5C 378.336,148.668 381.836,152.668 385.5,156.5 Z"/></g>
<g><path style="opacity:0.325" fill="#f9f9f9" d="M 238.5,147.5 C 239.906,147.973 240.573,148.973 240.5,150.5C 239.094,150.027 238.427,149.027 238.5,147.5 Z"/></g>
<g><path style="opacity:0.56" fill="#fcfcfc" d="M 39.5,149.5 C 41.4044,149.738 42.7377,150.738 43.5,152.5C 41.5956,152.262 40.2623,151.262 39.5,149.5 Z"/></g>
<g><path style="opacity:0.498" fill="#f9f9f9" d="M 240.5,150.5 C 242.914,151.911 244.581,153.911 245.5,156.5C 243.086,155.089 241.419,153.089 240.5,150.5 Z"/></g>
<g><path style="opacity:0.473" fill="#f9f9f9" d="M 43.5,152.5 C 45.0269,152.427 46.0269,153.094 46.5,154.5C 44.9731,154.573 43.9731,153.906 43.5,152.5 Z"/></g>
<g><path style="opacity:0.847" fill="#f4f4f4" d="M 214.5,154.5 C 216.685,153.913 218.352,154.913 219.5,157.5C 217.589,156.925 215.922,155.925 214.5,154.5 Z"/></g>
<g><path style="opacity:0.734" fill="#fafafa" d="M 48.5,155.5 C 52.5647,156.581 54.2314,159.248 53.5,163.5C 53.496,168.034 51.496,171.534 47.5,174C 35.3557,182.239 22.0223,187.406 7.5,189.5C 21.1258,186.449 33.7925,180.949 45.5,173C 52.2133,168.046 53.2133,162.212 48.5,155.5 Z"/></g>
<g><path style="opacity:0.51" fill="#eeeeee" d="M 154.5,160.5 C 154.461,159.244 154.961,158.244 156,157.5C 156.585,158.998 156.085,159.998 154.5,160.5 Z"/></g>
<g><path style="opacity:0.588" fill="#fcfcfc" d="M 154.5,160.5 C 154.5,161.167 154.5,161.833 154.5,162.5C 153.833,162.5 153.5,162.833 153.5,163.5C 153.167,163.5 152.833,163.5 152.5,163.5C 152.427,161.973 153.094,160.973 154.5,160.5 Z"/></g>
<g><path style="opacity:0.227" fill="#fafafa" d="M 167.5,162.5 C 166.5,163.167 165.5,163.833 164.5,164.5C 164.685,162.804 165.519,161.471 167,160.5C 167.464,161.094 167.631,161.761 167.5,162.5 Z"/></g>
<g><path style="opacity:0.953" fill="#c9c9c9" d="M 401.5,191.5 C 401.5,194.833 401.5,198.167 401.5,201.5C 400.373,202.122 399.373,202.955 398.5,204C 387.258,205.636 376.258,208.302 365.5,212C 361.642,212.81 357.976,212.643 354.5,211.5C 352.688,209.539 351.688,207.206 351.5,204.5C 351.06,200.821 351.727,197.488 353.5,194.5C 357.5,194.5 361.5,194.5 365.5,194.5C 366.822,194.67 367.989,194.337 369,193.5C 369.497,190.854 369.664,188.187 369.5,185.5C 367.5,185.5 365.5,185.5 363.5,185.5C 359.5,185.5 355.5,185.5 351.5,185.5C 347.022,180.252 345.689,174.252 347.5,167.5C 364.239,166.329 380.906,164.829 397.5,163C 398.701,163.903 399.535,165.069 400,166.5C 402.839,176.663 399.006,181.83 388.5,182C 386.398,183.733 386.065,185.733 387.5,188C 391.213,188.405 394.879,188.405 398.5,188C 399.814,188.985 400.814,190.152 401.5,191.5 Z"/></g>
<g><path style="opacity:0.473" fill="#fcfcfc" d="M 164.5,164.5 C 164.573,166.027 163.906,167.027 162.5,167.5C 162.427,165.973 163.094,164.973 164.5,164.5 Z"/></g>
<g><path style="opacity:0.741" fill="#fcfcfc" d="M 347.5,167.5 C 345.689,174.252 347.022,180.252 351.5,185.5C 347.743,184.233 345.576,181.566 345,177.5C 344.031,173.594 344.864,170.261 347.5,167.5 Z"/></g>
<g><path style="opacity:0.547" fill="#fbfbfb" d="M 152.5,163.5 C 151.277,166.274 149.777,168.941 148,171.5C 147.241,173.063 146.074,174.063 144.5,174.5C 146.445,170.264 149.112,166.597 152.5,163.5 Z"/></g>
<g><path style="opacity:0.502" fill="#f9f9f9" d="M 162.5,167.5 C 162.25,169.674 161.25,171.341 159.5,172.5C 159.75,170.326 160.75,168.659 162.5,167.5 Z"/></g>
<g><path style="opacity:0.657" fill="#ebebeb" d="M 159.5,172.5 C 159.209,173.649 158.376,174.316 157,174.5C 155.93,174.472 155.097,174.139 154.5,173.5C 155.097,174.139 155.93,174.472 157,174.5C 158.376,174.316 159.209,173.649 159.5,172.5 Z"/></g>
<g><path style="opacity:0.043" fill="#fafafa" d="M 181.5,178.5 C 180.738,180.262 179.404,181.262 177.5,181.5C 178.262,179.738 179.596,178.738 181.5,178.5 Z"/></g>
<g><path style="opacity:0.409" fill="#f7f7f7" d="M 267.5,185.5 C 267.5,184.167 267.5,182.833 267.5,181.5C 267.56,180.957 267.893,180.624 268.5,180.5C 269.634,182.439 269.3,184.105 267.5,185.5 Z"/></g>
<g><path style="opacity:0.738" fill="#fefefe" d="M 363.5,185.5 C 365.5,185.5 367.5,185.5 369.5,185.5C 369.664,188.187 369.497,190.854 369,193.5C 367.989,194.337 366.822,194.67 365.5,194.5C 367.202,192.2 367.868,189.533 367.5,186.5C 365.901,186.768 364.568,186.434 363.5,185.5 Z"/></g>
<g><path style="opacity:0.958" fill="#cacaca" d="M 178.5,190.5 C 178.427,192.027 179.094,193.027 180.5,193.5C 182.823,204.357 184.49,215.357 185.5,226.5C 185.259,228.898 185.926,230.898 187.5,232.5C 189.674,235.515 191.341,238.849 192.5,242.5C 192.402,244.553 193.069,246.22 194.5,247.5C 196.341,249.849 197.674,252.515 198.5,255.5C 198.402,257.553 199.069,259.22 200.5,260.5C 202.592,263.088 203.925,266.088 204.5,269.5C 204.12,271.698 204.787,273.365 206.5,274.5C 204.524,279.315 201.191,280.481 196.5,278C 193.6,275.603 191.267,272.77 189.5,269.5C 187.211,268.534 185.211,267.201 183.5,265.5C 180.842,266.158 179.175,267.825 178.5,270.5C 177.227,271.077 177.227,271.743 178.5,272.5C 183.68,274.519 188.18,277.519 192,281.5C 193.009,283.025 193.509,284.692 193.5,286.5C 192.981,289.775 190.981,291.108 187.5,290.5C 183.326,288.212 178.826,286.545 174,285.5C 171.455,287.186 168.622,288.186 165.5,288.5C 165.649,287.448 165.483,286.448 165,285.5C 160.749,288.042 156.582,290.709 152.5,293.5C 148.765,288.575 147.932,283.242 150,277.5C 151.039,276.29 152.206,275.29 153.5,274.5C 155.027,274.573 156.027,273.906 156.5,272.5C 158.027,272.573 159.027,271.906 159.5,270.5C 160.514,269.326 161.847,268.66 163.5,268.5C 165.027,268.573 166.027,267.906 166.5,266.5C 168.833,266.167 170.167,264.833 170.5,262.5C 170.5,261.833 170.833,261.5 171.5,261.5C 173.628,260.462 174.628,259.129 174.5,257.5C 173.763,255.695 172.763,254.029 171.5,252.5C 169.939,254.973 167.939,256.973 165.5,258.5C 162.724,242.287 161.891,225.953 163,209.5C 163.951,202.311 166.285,195.644 170,189.5C 173.29,186.578 176.124,186.912 178.5,190.5 Z"/></g>
<g><path style="opacity:0.681" fill="#fbfbfb" d="M 135.5,150.5 C 134.833,150.5 134.5,150.833 134.5,151.5C 121.272,171.604 108.772,192.271 97,213.5C 93.1866,218.16 88.6866,221.827 83.5,224.5C 87.4379,221.065 91.2712,217.398 95,213.5C 107.508,190.84 121.008,168.84 135.5,147.5C 136.087,148.233 136.087,149.233 135.5,150.5 Z"/></g>
<g><path style="opacity:0.255" fill="#f4f4f4" d="M 178.5,190.5 C 179.906,190.973 180.573,191.973 180.5,193.5C 179.094,193.027 178.427,192.027 178.5,190.5 Z"/></g>
<g><path style="opacity:0.557" fill="#f8f8f8" d="M 267.5,185.5 C 267.139,189.915 265.806,193.915 263.5,197.5C 264.261,193.216 265.595,189.216 267.5,185.5 Z"/></g>
<g><path style="opacity:0.917" fill="#c9c9c9" d="M 41.5,192.5 C 47.3531,194.876 50.1865,199.209 50,205.5C 49.3103,207.35 48.1436,208.684 46.5,209.5C 39.7319,210.536 35.2319,207.87 33,201.5C 32.5102,195.487 35.3436,192.487 41.5,192.5 Z"/></g>
<g><path style="opacity:0.904" fill="#f0f0f0" d="M 251.5,190.5 C 251.5,192.833 251.5,195.167 251.5,197.5C 250.711,197.217 250.044,196.717 249.5,196C 250.109,194.052 250.776,192.218 251.5,190.5 Z"/></g>
<g><path style="opacity:0.661" fill="#fcfcfc" d="M 41.5,192.5 C 49.8816,194.354 53.0483,199.354 51,207.5C 49.8904,209.037 48.3904,209.703 46.5,209.5C 48.1436,208.684 49.3103,207.35 50,205.5C 50.1865,199.209 47.3531,194.876 41.5,192.5 Z"/></g>
<g><path style="opacity:0.604" fill="#fafafa" d="M 147.5,150.5 C 144.919,153.32 143.086,156.654 142,160.5C 137.258,175.727 131.925,190.727 126,205.5C 124.629,208.266 122.796,210.599 120.5,212.5C 123.603,206.722 126.437,200.722 129,194.5C 133.333,181.833 137.667,169.167 142,156.5C 142.914,154.336 144.081,152.336 145.5,150.5C 146.257,149.227 146.923,149.227 147.5,150.5 Z"/></g>
<g><path style="opacity:0.644" fill="#fdfdfd" d="M 350.5,195.5 C 350.19,198.713 350.523,201.713 351.5,204.5C 351.688,207.206 352.688,209.539 354.5,211.5C 351.445,210.754 349.778,208.754 349.5,205.5C 349.004,203.529 348.67,201.529 348.5,199.5C 348.585,197.667 349.252,196.334 350.5,195.5 Z"/></g>
<g><path style="opacity:0.004" fill="#f3f3f3" d="M 230.5,195.5 C 231.833,196.167 232.833,197.167 233.5,198.5C 231.5,198.5 230.5,197.5 230.5,195.5 Z"/></g>
<g><path style="opacity:0.919" fill="#e4e4e4" d="M 353.5,194.5 C 351.727,197.488 351.06,200.821 351.5,204.5C 350.523,201.713 350.19,198.713 350.5,195.5C 351.209,194.596 352.209,194.263 353.5,194.5 Z"/></g>
<g><path style="opacity:0.919" fill="#cacaca" d="M 14.5,197.5 C 22.5444,201.055 23.5444,206.055 17.5,212.5C 7.46264,215.569 2.96264,211.902 4,201.5C 6.69728,198.13 10.1973,196.796 14.5,197.5 Z"/></g>
<g><path style="opacity:0.791" fill="#fcfcfc" d="M 14.5,197.5 C 22.687,198.54 25.187,202.873 22,210.5C 20.8904,212.037 19.3904,212.703 17.5,212.5C 23.5444,206.055 22.5444,201.055 14.5,197.5 Z"/></g>
<g><path style="opacity:0.918" fill="#dbdbdb" d="M 274.5,209.5 C 274.813,205.958 274.479,202.625 273.5,199.5C 273.281,198.325 273.614,197.325 274.5,196.5C 275.811,200.984 275.811,205.317 274.5,209.5 Z"/></g>
<g><path style="opacity:0.565" fill="#e5e5e5" d="M 235.5,200.5 C 237.027,200.427 238.027,201.094 238.5,202.5C 236.973,202.573 235.973,201.906 235.5,200.5 Z"/></g>
<g><path style="opacity:0.442" fill="#f5f5f5" d="M 263.5,197.5 C 263.346,202.289 262.013,206.622 259.5,210.5C 260.057,205.835 261.39,201.502 263.5,197.5 Z"/></g>
<g><path style="opacity:0.964" fill="#cacaca" d="M 37.5,213.5 C 41.5463,213.15 45.3797,213.817 49,215.5C 52.0701,225.283 54.9034,235.116 57.5,245C 55.6266,246.704 53.9599,248.537 52.5,250.5C 52.0825,251.222 51.4158,251.722 50.5,252C 47.8333,252.667 45.1667,252.667 42.5,252C 41.0836,249.165 39.417,246.498 37.5,244C 36.1667,243.833 34.8333,243.667 33.5,243.5C 25.5899,245.581 17.5899,247.247 9.5,248.5C 8.24185,243.058 6.57519,237.724 4.5,232.5C 5.02527,231.808 5.69194,231.308 6.5,231C 14.8897,230.438 23.223,229.438 31.5,228C 31.9574,227.586 32.2907,227.086 32.5,226.5C 29.8478,222.868 28.1811,218.868 27.5,214.5C 30.7861,213.793 34.1194,213.46 37.5,213.5 Z"/></g>
<g><path style="opacity:0.787" fill="#fbfbfb" d="M 37.5,213.5 C 42.0119,212.065 46.5119,212.398 51,214.5C 53.8346,224.506 56.6679,234.506 59.5,244.5C 57.7407,247.266 55.4073,249.266 52.5,250.5C 53.9599,248.537 55.6266,246.704 57.5,245C 54.9034,235.116 52.0701,225.283 49,215.5C 45.3797,213.817 41.5463,213.15 37.5,213.5 Z"/></g>
<g><path style="opacity:0.596" fill="#fafafa" d="M 258.5,213.5 C 258.771,215.38 258.104,216.713 256.5,217.5C 256.66,215.847 257.326,214.514 258.5,213.5 Z"/></g>
<g><path style="opacity:0.801" fill="#fcfcfc" d="M 353.5,216.5 C 346.531,220.699 345.864,225.699 351.5,231.5C 349.629,231.141 348.129,230.141 347,228.5C 344.783,221.941 346.949,217.941 353.5,216.5 Z"/></g>
<g><path style="opacity:0.925" fill="#cacaca" d="M 353.5,216.5 C 359.727,215.941 364.06,218.441 366.5,224C 364.245,231.794 359.245,234.294 351.5,231.5C 345.864,225.699 346.531,220.699 353.5,216.5 Z"/></g>
<g><path style="opacity:0.917" fill="#c9c9c9" d="M 382.5,216.5 C 390.545,216.048 394.378,219.714 394,227.5C 390.653,232.448 386.153,234.114 380.5,232.5C 374.623,226.418 375.29,221.084 382.5,216.5 Z"/></g>
<g><path style="opacity:0.769" fill="#fcfcfc" d="M 382.5,216.5 C 375.29,221.084 374.623,226.418 380.5,232.5C 376.124,231.788 374.124,229.121 374.5,224.5C 374.798,219.535 377.465,216.868 382.5,216.5 Z"/></g>
<g><path style="opacity:0.871" fill="#ededed" d="M 185.5,226.5 C 186.738,228.214 187.405,230.214 187.5,232.5C 185.926,230.898 185.259,228.898 185.5,226.5 Z"/></g>
<g><path style="opacity:0.829" fill="#e7e7e7" d="M 215.5,228.5 C 216.609,228.557 217.609,228.89 218.5,229.5C 217.221,230.715 216.221,230.382 215.5,228.5 Z"/></g>
<g><path style="opacity:0.776" fill="#f9f9f9" d="M 347.5,233.5 C 344.051,235.387 342.717,238.387 343.5,242.5C 343.667,244.5 343.833,246.5 344,248.5C 345.707,250.037 347.207,251.704 348.5,253.5C 343.082,251.575 340.748,247.742 341.5,242C 340.079,236.488 342.079,233.655 347.5,233.5 Z"/></g>
<g><path style="opacity:0.946" fill="#c9c9c9" d="M 347.5,233.5 C 348.805,236.805 351.138,239.138 354.5,240.5C 355.313,241.653 356.313,241.653 357.5,240.5C 358.882,238.451 360.548,236.785 362.5,235.5C 365.522,235.428 367.688,236.762 369,239.5C 370.29,243.73 370.79,248.064 370.5,252.5C 370.5,253.167 370.5,253.833 370.5,254.5C 368.69,257.643 366.023,259.643 362.5,260.5C 358.406,259.617 354.739,257.95 351.5,255.5C 351.027,254.094 350.027,253.427 348.5,253.5C 347.207,251.704 345.707,250.037 344,248.5C 343.833,246.5 343.667,244.5 343.5,242.5C 342.717,238.387 344.051,235.387 347.5,233.5 Z"/></g>
<g><path style="opacity:0.341" fill="#f6f6f6" d="M 256.5,217.5 C 255.116,225.233 255.45,232.899 257.5,240.5C 254.687,233.877 253.854,226.877 255,219.5C 255.278,218.584 255.778,217.918 256.5,217.5 Z"/></g>
<g><path style="opacity:0.709" fill="#fafafa" d="M 362.5,235.5 C 360.548,236.785 358.882,238.451 357.5,240.5C 356.313,241.653 355.313,241.653 354.5,240.5C 356.309,239.519 357.643,238.019 358.5,236C 359.793,235.51 361.127,235.343 362.5,235.5 Z"/></g>
<g><path style="opacity:0.294" fill="#f7f7f7" d="M 192.5,242.5 C 193.931,243.78 194.598,245.447 194.5,247.5C 193.069,246.22 192.402,244.553 192.5,242.5 Z"/></g>
<g><path style="opacity:0.746" fill="#fcfcfc" d="M 382.5,248.5 C 372.645,249.543 370.312,254.209 375.5,262.5C 371.427,261.413 369.761,258.746 370.5,254.5C 370.5,253.833 370.5,253.167 370.5,252.5C 373.44,247.802 377.44,246.469 382.5,248.5 Z"/></g>
<g><path style="opacity:0.915" fill="#c9c9c9" d="M 382.5,248.5 C 389.267,249.682 391.767,253.682 390,260.5C 385.583,264.906 380.75,265.572 375.5,262.5C 370.312,254.209 372.645,249.543 382.5,248.5 Z"/></g>
<g><path style="opacity:0.683" fill="#fcfcfc" d="M 54.5,253.5 C 58.2341,251.952 60.7341,253.286 62,257.5C 63.3677,260.738 63.7011,264.072 63,267.5C 62.3292,268.252 61.4959,268.586 60.5,268.5C 62.0783,263.885 61.4117,259.552 58.5,255.5C 57.4231,254.295 56.0898,253.628 54.5,253.5 Z"/></g>
<g><path style="opacity:0.953" fill="#c9c9c9" d="M 54.5,253.5 C 56.0898,253.628 57.4231,254.295 58.5,255.5C 61.4117,259.552 62.0783,263.885 60.5,268.5C 58.7496,269.87 56.7496,270.87 54.5,271.5C 50.8272,273.238 50.4939,275.738 53.5,279C 55.0657,279.765 56.3991,279.598 57.5,278.5C 58.9303,277.463 60.597,276.796 62.5,276.5C 70.4649,275.134 74.4649,278.468 74.5,286.5C 68.4642,291.191 62.1309,295.525 55.5,299.5C 53.9731,299.427 52.9731,300.094 52.5,301.5C 49.8333,304.833 46.8333,307.833 43.5,310.5C 41.5956,310.738 40.2623,311.738 39.5,313.5C 36.8976,314.969 34.731,314.302 33,311.5C 30.8838,307.372 29.8838,303.039 30,298.5C 34.0059,296.082 37.5059,293.082 40.5,289.5C 38.9239,287.021 37.9239,284.354 37.5,281.5C 31.9173,282.301 26.4173,283.635 21,285.5C 20.1268,285.265 19.2935,284.931 18.5,284.5C 16.9862,281.378 16.3196,278.045 16.5,274.5C 16.8333,272.167 17.1667,269.833 17.5,267.5C 29.8689,262.823 42.2022,258.156 54.5,253.5 Z"/></g>
<g><path style="opacity:0.651" fill="#f3f3f3" d="M 348.5,253.5 C 350.027,253.427 351.027,254.094 351.5,255.5C 349.973,255.573 348.973,254.906 348.5,253.5 Z"/></g>
<g><path style="opacity:0.647" fill="#e7e7e7" d="M 229.5,253.5 C 230.906,253.973 231.573,254.973 231.5,256.5C 230.094,256.027 229.427,255.027 229.5,253.5 Z"/></g>
<g><path style="opacity:0.284" fill="#f8f8f8" d="M 198.5,255.5 C 199.931,256.78 200.598,258.447 200.5,260.5C 199.069,259.22 198.402,257.553 198.5,255.5 Z"/></g>
<g><path style="opacity:0.808" fill="#eeeeee" d="M 174.5,257.5 C 174.628,259.129 173.628,260.462 171.5,261.5C 171.738,259.596 172.738,258.262 174.5,257.5 Z"/></g>
<g><path style="opacity:0.737" fill="#fcfcfc" d="M 338.5,260.5 C 331.304,262.175 327.971,266.842 328.5,274.5C 327.053,273.866 326.387,272.699 326.5,271C 327.34,266.306 329.673,262.639 333.5,260C 335.387,259.22 337.054,259.387 338.5,260.5 Z"/></g>
<g><path style="opacity:0.944" fill="#c9c9c9" d="M 338.5,260.5 C 352.554,266.361 365.554,274.028 377.5,283.5C 377.882,289.382 375.549,294.215 370.5,298C 365.229,298.364 360.895,296.531 357.5,292.5C 357.027,291.094 356.027,290.427 354.5,290.5C 352.77,289.974 351.436,288.974 350.5,287.5C 350.027,286.094 349.027,285.427 347.5,285.5C 341.408,281.406 335.075,277.74 328.5,274.5C 327.971,266.842 331.304,262.175 338.5,260.5 Z"/></g>
<g><path style="opacity:0.616" fill="#f8f8f8" d="M 273.5,199.5 C 274.479,202.625 274.813,205.958 274.5,209.5C 274.333,228.836 274.5,248.17 275,267.5C 275.995,271.145 276.828,274.812 277.5,278.5C 275.738,275.497 274.572,272.163 274,268.5C 273.5,264.5 273,260.5 272.5,256.5C 273.443,239.518 273.776,222.518 273.5,205.5C 273.5,203.5 273.5,201.5 273.5,199.5 Z"/></g>
<g><path style="opacity:0.827" fill="#e5e5e5" d="M 170.5,262.5 C 170.167,264.833 168.833,266.167 166.5,266.5C 167.5,264.833 168.833,263.5 170.5,262.5 Z"/></g>
<g><path style="opacity:0.878" fill="#ededed" d="M 166.5,266.5 C 166.027,267.906 165.027,268.573 163.5,268.5C 163.973,267.094 164.973,266.427 166.5,266.5 Z"/></g>
<g><path style="opacity:0.946" fill="#c9c9c9" d="M 242.5,271.5 C 242.833,272.833 243.167,274.167 243.5,275.5C 243.738,277.404 244.738,278.738 246.5,279.5C 249.167,281.5 251.5,283.833 253.5,286.5C 253.427,288.027 254.094,289.027 255.5,289.5C 256.79,290.058 257.623,291.058 258,292.5C 261.375,299.237 259.542,303.57 252.5,305.5C 249.379,303.284 247.212,300.284 246,296.5C 244.274,295.424 242.441,295.257 240.5,296C 239.733,298.053 238.4,299.553 236.5,300.5C 233.326,299.661 230.659,297.995 228.5,295.5C 225.581,297.309 222.581,298.476 219.5,299C 216.091,297.304 214.758,294.471 215.5,290.5C 219.867,282.628 226.534,277.628 235.5,275.5C 236.624,274.086 237.624,272.586 238.5,271C 239.928,270.421 241.262,270.588 242.5,271.5 Z"/></g>
<g><path style="opacity:0.894" fill="#f4f4f4" d="M 159.5,270.5 C 159.027,271.906 158.027,272.573 156.5,272.5C 156.973,271.094 157.973,270.427 159.5,270.5 Z"/></g>
<g><path style="opacity:0.823" fill="#fafafa" d="M 54.5,271.5 C 52.996,274.832 53.996,277.165 57.5,278.5C 56.3991,279.598 55.0657,279.765 53.5,279C 50.4939,275.738 50.8272,273.238 54.5,271.5 Z"/></g>
<g><path style="opacity:0.89" fill="#e7e7e7" d="M 204.5,269.5 C 205.537,270.93 206.204,272.597 206.5,274.5C 204.787,273.365 204.12,271.698 204.5,269.5 Z"/></g>
<g><path style="opacity:0.863" fill="#ececec" d="M 156.5,272.5 C 156.027,273.906 155.027,274.573 153.5,274.5C 153.973,273.094 154.973,272.427 156.5,272.5 Z"/></g>
<g><path style="opacity:0.68" fill="#fafafa" d="M 74.5,286.5 C 74.4649,278.468 70.4649,275.134 62.5,276.5C 69.6358,272.897 74.3024,275.064 76.5,283C 76.6134,284.699 75.9468,285.866 74.5,286.5 Z"/></g>
<g><path style="opacity:0.68" fill="#f8f8f8" d="M 242.5,269.5 C 242.5,270.167 242.5,270.833 242.5,271.5C 241.262,270.588 239.928,270.421 238.5,271C 237.624,272.586 236.624,274.086 235.5,275.5C 226.534,277.628 219.867,282.628 215.5,290.5C 216.366,286.114 218.699,282.614 222.5,280C 226.339,277.884 230.339,276.05 234.5,274.5C 235.711,272.578 237.044,270.745 238.5,269C 239.819,268.805 241.153,268.972 242.5,269.5 Z"/></g>
<g><path style="opacity:0.566" fill="#fbfbfb" d="M 178.5,270.5 C 183.842,272.935 188.675,276.268 193,280.5C 194.542,282.565 194.709,284.565 193.5,286.5C 193.509,284.692 193.009,283.025 192,281.5C 188.18,277.519 183.68,274.519 178.5,272.5C 177.227,271.743 177.227,271.077 178.5,270.5 Z"/></g>
<g><path style="opacity:0.684" fill="#fcfcfc" d="M 328.5,277.5 C 320.259,279.315 317.926,283.981 321.5,291.5C 315.893,285.457 316.893,280.624 324.5,277C 326.066,276.235 327.399,276.402 328.5,277.5 Z"/></g>
<g><path style="opacity:0.749" fill="#e6e6e6" d="M 243.5,275.5 C 245.262,276.262 246.262,277.596 246.5,279.5C 244.738,278.738 243.738,277.404 243.5,275.5 Z"/></g>
<g><path style="opacity:0.944" fill="#c9c9c9" d="M 328.5,277.5 C 330.624,278.031 332.124,279.365 333,281.5C 339.551,295.268 345.551,309.268 351,323.5C 351.687,325.568 351.52,327.568 350.5,329.5C 348.062,331.804 345.229,333.47 342,334.5C 328.116,326.308 313.616,319.308 298.5,313.5C 297.271,308.258 298.937,304.425 303.5,302C 307.956,301.422 312.289,301.922 316.5,303.5C 318.153,303.66 319.486,304.326 320.5,305.5C 322.792,307.267 325.458,308.267 328.5,308.5C 328.047,304.307 326.881,300.307 325,296.5C 324.303,294.416 323.136,292.749 321.5,291.5C 317.926,283.981 320.259,279.315 328.5,277.5 Z"/></g>
<g><path style="opacity:0.565" fill="#e8e8e8" d="M 347.5,285.5 C 349.027,285.427 350.027,286.094 350.5,287.5C 348.973,287.573 347.973,286.906 347.5,285.5 Z"/></g>
<g><path style="opacity:0.816" fill="#eaeaea" d="M 253.5,286.5 C 254.906,286.973 255.573,287.973 255.5,289.5C 254.094,289.027 253.427,288.027 253.5,286.5 Z"/></g>
<g><path style="opacity:0.565" fill="#e6e6e6" d="M 354.5,290.5 C 356.027,290.427 357.027,291.094 357.5,292.5C 355.973,292.573 354.973,291.906 354.5,290.5 Z"/></g>
<g><path style="opacity:0.729" fill="#f9f9f9" d="M 98.5,324.5 C 102.032,311.399 97.3653,302.232 84.5,297C 78.5092,296.501 72.5092,296.334 66.5,296.5C 81.6845,291.061 93.1845,295.395 101,309.5C 101.667,313.167 101.667,316.833 101,320.5C 100.392,322.066 99.5585,323.4 98.5,324.5 Z"/></g>
<g><path style="opacity:0.959" fill="#c9c9c9" d="M 66.5,296.5 C 72.5092,296.334 78.5092,296.501 84.5,297C 97.3653,302.232 102.032,311.399 98.5,324.5C 96.5488,327.786 94.2154,330.786 91.5,333.5C 90.8333,333.5 90.5,333.833 90.5,334.5C 89.5084,334.328 88.8417,334.662 88.5,335.5C 87.8333,335.5 87.5,335.833 87.5,336.5C 87.1667,336.5 86.8333,336.5 86.5,336.5C 85.8333,336.5 85.5,336.833 85.5,337.5C 84.8333,337.5 84.5,337.833 84.5,338.5C 84.1667,338.5 83.8333,338.5 83.5,338.5C 82.8333,338.5 82.5,338.833 82.5,339.5C 82.1667,339.5 81.8333,339.5 81.5,339.5C 68.4087,345.123 57.9087,342.123 50,330.5C 45.6354,314.231 51.1354,302.898 66.5,296.5 Z M 77.5,324.5 C 68.6357,326.304 65.3024,322.971 67.5,314.5C 71.3874,312.113 75.3874,311.946 79.5,314C 80.8941,314.956 81.5607,316.289 81.5,318C 80.7946,320.542 79.4613,322.708 77.5,324.5 Z"/></g>
<g><path style="opacity:0.623" fill="#fbfbfb" d="M 316.5,303.5 C 312.289,301.922 307.956,301.422 303.5,302C 298.937,304.425 297.271,308.258 298.5,313.5C 294.833,305.841 297.333,301.174 306,299.5C 309.978,299.858 313.478,301.191 316.5,303.5 Z"/></g>
<g><path style="opacity:0.008" fill="#f9f9f9" d="M 55.5,299.5 C 55.0269,300.906 54.0269,301.573 52.5,301.5C 52.9731,300.094 53.9731,299.427 55.5,299.5 Z"/></g>
<g><path style="opacity:0.736" fill="#f9f9f9" d="M 321.5,291.5 C 323.136,292.749 324.303,294.416 325,296.5C 326.881,300.307 328.047,304.307 328.5,308.5C 325.458,308.267 322.792,307.267 320.5,305.5C 322.5,305.833 324.5,306.167 326.5,306.5C 325.43,301.29 323.763,296.29 321.5,291.5 Z"/></g>
<g><path style="opacity:0.082" fill="#f7f7f7" d="M 43.5,310.5 C 42.7377,312.262 41.4044,313.262 39.5,313.5C 40.2623,311.738 41.5956,310.738 43.5,310.5 Z"/></g>
<g><path style="opacity:0.815" fill="#fcfcfc" d="M 67.5,314.5 C 65.3024,322.971 68.6357,326.304 77.5,324.5C 77.3893,325.117 77.056,325.617 76.5,326C 73.0357,326.817 69.7024,326.483 66.5,325C 63.7209,321.181 64.0542,317.681 67.5,314.5 Z"/></g>
<g><path style="opacity:0.708" fill="#f9f9f9" d="M 307.5,322.5 C 297.218,317.541 286.885,317.374 276.5,322C 270.071,328.881 267.738,337.048 269.5,346.5C 265.865,336.53 267.865,327.697 275.5,320C 286.793,314.74 297.46,315.574 307.5,322.5 Z"/></g>
<g><path style="opacity:0.698" fill="#fdfdfd" d="M 120.5,332.5 C 121.329,324.074 117.663,320.074 109.5,320.5C 117.226,316.837 121.226,319.503 121.5,328.5C 121.489,330.045 121.156,331.378 120.5,332.5 Z"/></g>
<g><path style="opacity:0.965" fill="#c9c9c9" d="M 307.5,322.5 C 307.973,323.906 308.973,324.573 310.5,324.5C 313.061,326.64 315.395,328.973 317.5,331.5C 317.791,332.649 318.624,333.316 320,333.5C 322.462,332.841 324.962,332.507 327.5,332.5C 331.765,341.303 329.098,346.637 319.5,348.5C 317.267,358.233 311.267,364.066 301.5,366C 285.917,368.025 275.25,361.525 269.5,346.5C 267.738,337.048 270.071,328.881 276.5,322C 286.885,317.374 297.218,317.541 307.5,322.5 Z M 299.5,335.5 C 297.984,337.186 296.65,339.019 295.5,341C 295.808,342.459 296.475,343.626 297.5,344.5C 297.782,345.778 298.449,346.778 299.5,347.5C 297.97,348.067 296.47,348.733 295,349.5C 292.749,348.588 290.583,347.588 288.5,346.5C 284.911,340.938 286.244,337.105 292.5,335C 294.885,334.444 297.218,334.61 299.5,335.5 Z"/></g>
<g><path style="opacity:0.96" fill="#c9c9c9" d="M 109.5,320.5 C 117.663,320.074 121.329,324.074 120.5,332.5C 120.267,334.062 119.6,335.395 118.5,336.5C 116.727,337.314 116.227,338.648 117,340.5C 119.933,344.316 123.099,344.483 126.5,341C 128.141,339.871 129.141,338.371 129.5,336.5C 134.917,331.952 139.084,332.952 142,339.5C 142.498,342.482 142.665,345.482 142.5,348.5C 139.755,360.33 135.588,371.663 130,382.5C 129.311,383.357 128.478,384.023 127.5,384.5C 124.42,383.211 121.586,381.545 119,379.5C 118.449,374.303 119.283,369.303 121.5,364.5C 121.242,361.314 119.575,359.314 116.5,358.5C 104.938,368.28 100.938,365.946 104.5,351.5C 103.833,351.167 103.167,350.833 102.5,350.5C 97.8026,352.363 93.4693,354.863 89.5,358C 83.8086,358.576 78.9753,356.743 75,352.5C 73.5296,347.81 75.0296,344.477 79.5,342.5C 81.8525,341.66 83.8525,340.326 85.5,338.5C 87.674,338.25 89.3406,337.25 90.5,335.5C 95.1651,334.172 99.1651,331.839 102.5,328.5C 104.027,328.573 105.027,327.906 105.5,326.5C 107.226,324.772 108.559,322.772 109.5,320.5 Z"/></g>
<g><path style="opacity:0.137" fill="#f7f7f7" d="M 307.5,322.5 C 309.027,322.427 310.027,323.094 310.5,324.5C 308.973,324.573 307.973,323.906 307.5,322.5 Z"/></g>
<g><path style="opacity:0.933" fill="#f4f4f4" d="M 105.5,326.5 C 105.027,327.906 104.027,328.573 102.5,328.5C 102.973,327.094 103.973,326.427 105.5,326.5 Z"/></g>
<g><path style="opacity:0.664" fill="#fefefe" d="M 327.5,332.5 C 324.962,332.507 322.462,332.841 320,333.5C 318.624,333.316 317.791,332.649 317.5,331.5C 319.884,331.557 322.218,331.223 324.5,330.5C 326.038,330.453 327.038,331.12 327.5,332.5 Z"/></g>
<g><path style="opacity:0.592" fill="#fafafa" d="M 102.5,328.5 C 99.1651,331.839 95.1651,334.172 90.5,335.5C 90.5,335.167 90.5,334.833 90.5,334.5C 91.1667,334.5 91.5,334.167 91.5,333.5C 95.3163,332.091 98.9829,330.424 102.5,328.5 Z"/></g>
<g><path style="opacity:0.783" fill="#fbfbfb" d="M 142.5,348.5 C 142.665,345.482 142.498,342.482 142,339.5C 139.084,332.952 134.917,331.952 129.5,336.5C 129.511,334.983 130.177,333.816 131.5,333C 134.5,332.333 137.5,332.333 140.5,333C 143.539,337.966 144.206,343.133 142.5,348.5 Z"/></g>
<g><path style="opacity:0.486" fill="#fbfbfb" d="M 88.5,335.5 C 89.1667,335.5 89.8333,335.5 90.5,335.5C 89.3406,337.25 87.674,338.25 85.5,338.5C 85.5,338.167 85.5,337.833 85.5,337.5C 86.1667,337.5 86.5,337.167 86.5,336.5C 86.8333,336.5 87.1667,336.5 87.5,336.5C 88.1667,336.5 88.5,336.167 88.5,335.5 Z"/></g>
<g><path style="opacity:0.727" fill="#f7f7f7" d="M 118.5,336.5 C 118.293,339.127 119.46,340.793 122,341.5C 124.916,340.411 127.416,338.744 129.5,336.5C 129.141,338.371 128.141,339.871 126.5,341C 123.099,344.483 119.933,344.316 117,340.5C 116.227,338.648 116.727,337.314 118.5,336.5 Z"/></g>
<g><path style="opacity:0.696" fill="#fafafa" d="M 299.5,335.5 C 300.478,335.811 301.145,336.478 301.5,337.5C 298.453,338.875 297.12,341.208 297.5,344.5C 296.475,343.626 295.808,342.459 295.5,341C 296.65,339.019 297.984,337.186 299.5,335.5 Z"/></g>
<g><path style="opacity:0.776" fill="#f9f9f9" d="M 257.5,347.5 C 254.703,345.205 252.036,342.705 249.5,340C 247.5,339.333 245.5,339.333 243.5,340C 240.933,342.396 238.6,344.896 236.5,347.5C 237.898,340.264 242.231,337.098 249.5,338C 252.777,340.766 255.443,343.933 257.5,347.5 Z"/></g>
<g><path style="opacity:0.378" fill="#f8f8f8" d="M 83.5,338.5 C 83.8333,338.5 84.1667,338.5 84.5,338.5C 84.8333,338.5 85.1667,338.5 85.5,338.5C 83.8525,340.326 81.8525,341.66 79.5,342.5C 80.1667,341.5 80.8333,340.5 81.5,339.5C 81.8333,339.5 82.1667,339.5 82.5,339.5C 83.1667,339.5 83.5,339.167 83.5,338.5 Z"/></g>
<g><path style="opacity:0.794" fill="#fafafa" d="M 207.5,349.5 C 206.521,348.235 205.521,346.901 204.5,345.5C 197.858,344.336 191.192,344.169 184.5,345C 181.827,346.001 179.493,347.501 177.5,349.5C 175.474,347.295 173.808,344.795 172.5,342C 170.402,341.322 168.402,341.489 166.5,342.5C 166.414,341.504 166.748,340.671 167.5,340C 169.167,339.333 170.833,339.333 172.5,340C 174.46,342.106 176.294,344.273 178,346.5C 180.071,345.213 182.238,344.047 184.5,343C 191.167,342.333 197.833,342.333 204.5,343C 206.451,344.734 207.451,346.901 207.5,349.5 Z"/></g>
<g><path style="opacity:0.96" fill="#c9c9c9" d="M 257.5,347.5 C 257.738,349.404 258.738,350.738 260.5,351.5C 261.757,354.427 263.757,356.761 266.5,358.5C 267.419,361.089 269.086,363.089 271.5,364.5C 272.08,366.749 273.413,368.415 275.5,369.5C 275.738,371.404 276.738,372.738 278.5,373.5C 279.413,379.635 276.746,383.635 270.5,385.5C 269.5,385.333 268.5,385.167 267.5,385C 263.646,379.645 258.979,375.145 253.5,371.5C 250.132,372.702 247.966,375.035 247,378.5C 245.985,382.805 245.152,387.139 244.5,391.5C 242.636,392.993 240.47,393.66 238,393.5C 234.973,393.923 232.64,392.923 231,390.5C 230.501,386.179 230.334,381.846 230.5,377.5C 232.011,374.456 232.678,371.122 232.5,367.5C 234.631,362.848 235.631,357.848 235.5,352.5C 235.216,350.585 235.549,348.919 236.5,347.5C 238.6,344.896 240.933,342.396 243.5,340C 245.5,339.333 247.5,339.333 249.5,340C 252.036,342.705 254.703,345.205 257.5,347.5 Z M 248.5,358.5 C 247.713,360.104 246.38,360.771 244.5,360.5C 244.377,355.226 245.71,354.559 248.5,358.5 Z"/></g>
<g><path style="opacity:0.967" fill="#c9c9c9" d="M 207.5,349.5 C 208.818,352.565 208.818,355.731 207.5,359C 202.833,359.333 198.167,359.667 193.5,360C 192.263,360.232 191.263,360.732 190.5,361.5C 190.414,362.496 190.748,363.329 191.5,364C 194.382,364.272 197.049,365.106 199.5,366.5C 199.882,372.118 197.215,374.785 191.5,374.5C 190.172,375.91 190.505,377.076 192.5,378C 197.833,378.333 203.167,378.667 208.5,379C 209.066,379.995 209.733,380.828 210.5,381.5C 211.057,391.724 206.223,396.724 196,396.5C 190.987,396.331 186.153,395.331 181.5,393.5C 180.451,395.216 179.118,396.549 177.5,397.5C 175.833,397.5 174.167,397.5 172.5,397.5C 167.984,394.463 164.65,390.296 162.5,385C 161.5,384.333 160.5,384.333 159.5,385C 155.497,387.253 151.33,389.086 147,390.5C 143.322,390.066 139.822,389.066 136.5,387.5C 134.834,385.579 134.5,383.579 135.5,381.5C 137.262,380.738 138.262,379.404 138.5,377.5C 140.587,376.415 141.92,374.749 142.5,372.5C 144.587,371.415 145.92,369.749 146.5,367.5C 153.297,361.374 158.964,354.374 163.5,346.5C 165.262,345.738 166.262,344.404 166.5,342.5C 168.402,341.489 170.402,341.322 172.5,342C 173.808,344.795 175.474,347.295 177.5,349.5C 179.493,347.501 181.827,346.001 184.5,345C 191.192,344.169 197.858,344.336 204.5,345.5C 205.521,346.901 206.521,348.235 207.5,349.5 Z M 167.5,366.5 C 166.292,367.234 164.959,367.567 163.5,367.5C 163.5,366.5 163.5,365.5 163.5,364.5C 163.694,362.088 165.027,361.088 167.5,361.5C 167.5,363.167 167.5,364.833 167.5,366.5 Z"/></g>
<g><path style="opacity:0.957" fill="#f9f9f9" d="M 166.5,342.5 C 166.262,344.404 165.262,345.738 163.5,346.5C 163.738,344.596 164.738,343.262 166.5,342.5 Z"/></g>
<g><path style="opacity:0.786" fill="#fcfcfc" d="M 288.5,346.5 C 290.583,347.588 292.749,348.588 295,349.5C 296.47,348.733 297.97,348.067 299.5,347.5C 301.028,347.517 301.528,348.184 301,349.5C 298.263,350.61 295.429,350.777 292.5,350C 290.676,349.34 289.343,348.173 288.5,346.5 Z"/></g>
<g><path style="opacity:0.953" fill="#f8f8f8" d="M 257.5,347.5 C 259.262,348.262 260.262,349.596 260.5,351.5C 258.738,350.738 257.738,349.404 257.5,347.5 Z"/></g>
<g><path style="opacity:0.969" fill="#f7f7f7" d="M 163.5,346.5 C 158.964,354.374 153.297,361.374 146.5,367.5C 151.794,360.205 157.461,353.205 163.5,346.5 Z"/></g>
<g><path style="opacity:0.503" fill="#f9f9f9" d="M 260.5,351.5 C 263.243,353.239 265.243,355.573 266.5,358.5C 263.757,356.761 261.757,354.427 260.5,351.5 Z"/></g>
<g><path style="opacity:0.591" fill="#f8f8f8" d="M 235.5,352.5 C 235.631,357.848 234.631,362.848 232.5,367.5C 233.058,362.291 234.058,357.291 235.5,352.5 Z"/></g>
<g><path style="opacity:0.78" fill="#fbfbfb" d="M 248.5,358.5 C 249.983,360.684 249.316,362.017 246.5,362.5C 245.287,362.253 244.62,361.586 244.5,360.5C 246.38,360.771 247.713,360.104 248.5,358.5 Z"/></g>
<g><path style="opacity:0.81" fill="#fcfcfc" d="M 190.5,361.5 C 193.189,362.038 195.856,362.705 198.5,363.5C 199.386,364.325 199.719,365.325 199.5,366.5C 197.049,365.106 194.382,364.272 191.5,364C 190.748,363.329 190.414,362.496 190.5,361.5 Z"/></g>
<g><path style="opacity:0.528" fill="#f9f9f9" d="M 266.5,358.5 C 268.914,359.911 270.581,361.911 271.5,364.5C 269.086,363.089 267.419,361.089 266.5,358.5 Z"/></g>
<g><path style="opacity:0.681" fill="#fdfdfd" d="M 163.5,364.5 C 163.5,365.5 163.5,366.5 163.5,367.5C 164.959,367.567 166.292,367.234 167.5,366.5C 167.5,367.5 167.5,368.5 167.5,369.5C 165.833,369.5 164.167,369.5 162.5,369.5C 162.216,367.585 162.549,365.919 163.5,364.5 Z"/></g>
<g><path style="opacity:0.514" fill="#f7f7f7" d="M 271.5,364.5 C 273.587,365.585 274.92,367.251 275.5,369.5C 273.413,368.415 272.08,366.749 271.5,364.5 Z"/></g>
<g><path style="opacity:0.969" fill="#f8f8f8" d="M 146.5,367.5 C 145.92,369.749 144.587,371.415 142.5,372.5C 143.08,370.251 144.413,368.585 146.5,367.5 Z"/></g>
<g><path style="opacity:0.929" fill="#f2f2f2" d="M 275.5,369.5 C 277.262,370.262 278.262,371.596 278.5,373.5C 276.738,372.738 275.738,371.404 275.5,369.5 Z"/></g>
<g><path style="opacity:0.562" fill="#fbfbfb" d="M 232.5,367.5 C 232.678,371.122 232.011,374.456 230.5,377.5C 230.549,373.922 231.215,370.589 232.5,367.5 Z"/></g>
<g><path style="opacity:0.882" fill="#fefefe" d="M 191.5,374.5 C 191.918,375.222 192.584,375.722 193.5,376C 198.864,376.171 204.198,376.671 209.5,377.5C 210.246,378.736 210.579,380.07 210.5,381.5C 209.733,380.828 209.066,379.995 208.5,379C 203.167,378.667 197.833,378.333 192.5,378C 190.505,377.076 190.172,375.91 191.5,374.5 Z"/></g>
<g><path style="opacity:0.957" fill="#f9f9f9" d="M 142.5,372.5 C 141.92,374.749 140.587,376.415 138.5,377.5C 139.08,375.251 140.413,373.585 142.5,372.5 Z"/></g>
<g><path style="opacity:0.937" fill="#f8f8f8" d="M 138.5,377.5 C 138.262,379.404 137.262,380.738 135.5,381.5C 135.738,379.596 136.738,378.262 138.5,377.5 Z"/></g>
</svg>
