<?xml version="1.0" encoding="UTF-8"?>
<!DOCTYPE svg PUBLIC "-//W3C//DTD SVG 1.1//EN" "http://www.w3.org/Graphics/SVG/1.1/DTD/svg11.dtd">
<svg xmlns="http://www.w3.org/2000/svg" version="1.1" width="504px" height="172px" style="shape-rendering:geometricPrecision; text-rendering:geometricPrecision; image-rendering:optimizeQuality; fill-rule:evenodd; clip-rule:evenodd" xmlns:xlink="http://www.w3.org/1999/xlink">
<g><path style="opacity:0.793" fill="#fefffe" d="M 108.5,23.5 C 102.706,29.6312 99.0388,28.4645 97.5,20C 97.8333,18.8333 98.1667,17.6667 98.5,16.5C 99.086,16.7093 99.586,17.0426 100,17.5C 100.49,16.2068 100.657,14.8734 100.5,13.5C 104.427,13.3063 107.26,14.973 109,18.5C 108.981,20.1075 108.815,21.7741 108.5,23.5 Z"/></g>
<g><path style="opacity:0.807" fill="#fefffe" d="M 83.5,14.5 C 86.1873,14.3359 88.854,14.5026 91.5,15C 93.229,16.7889 93.8957,18.9556 93.5,21.5C 94.5,21.5 95.5,21.5 96.5,21.5C 96.822,23.7224 96.1554,25.5557 94.5,27C 90.9721,26.8529 87.4721,26.6862 84,26.5C 81.5141,30.7484 78.3474,31.415 74.5,28.5C 73.1667,25.5 73.1667,22.5 74.5,19.5C 75.8498,18.0499 77.5165,17.3832 79.5,17.5C 79.8333,20.1667 80.1667,22.8333 80.5,25.5C 81.5,25.5 82.5,25.5 83.5,25.5C 83.5379,22.8187 82.8713,20.3187 81.5,18C 81.9783,16.6974 82.645,15.5307 83.5,14.5 Z"/></g>
<g><path style="opacity:0.716" fill="#fefffe" d="M 110.5,17.5 C 112.665,17.1159 114.332,17.7826 115.5,19.5C 114.332,21.2174 112.665,21.8841 110.5,21.5C 110.5,20.1667 110.5,18.8333 110.5,17.5 Z"/></g>
<g><path style="opacity:0.581" fill="#fefffe" d="M 194.5,17.5 C 195.5,17.5 196.5,17.5 197.5,17.5C 197.5,64.1667 197.5,110.833 197.5,157.5C 196.5,157.5 195.5,157.5 194.5,157.5C 194.5,110.833 194.5,64.1667 194.5,17.5 Z"/></g>
<g><path style="opacity:0.796" fill="#fefffe" d="M 120.5,32.5 C 119.142,33.6256 117.808,33.6256 116.5,32.5C 112.129,24.4759 114.462,20.6426 123.5,21C 126.145,22.2865 127.145,24.4532 126.5,27.5C 124.409,27.6816 122.409,27.3482 120.5,26.5C 121.153,28.3175 121.153,30.3175 120.5,32.5 Z"/></g>
<g><path style="opacity:0.778" fill="#fefffe" d="M 69.5,21.5 C 70.4972,21.4701 71.1639,21.9701 71.5,23C 72.1037,25.5838 72.9371,28.0838 74,30.5C 74.7203,32.1124 74.5536,33.6124 73.5,35C 68.5221,35.6735 64.1888,34.3401 60.5,31C 60.6448,30.228 60.9781,29.5613 61.5,29C 63.898,28.6256 66.2313,28.6256 68.5,29C 67.0825,26.2565 67.4159,23.7565 69.5,21.5 Z"/></g>
<g><path style="opacity:0.62" fill="#fefffe" d="M 108.5,23.5 C 110.167,23.5 111.833,23.5 113.5,23.5C 114.169,27.6759 112.669,29.0093 109,27.5C 108.51,26.2068 108.343,24.8734 108.5,23.5 Z"/></g>
<g><path style="opacity:0.8" fill="#fefffe" d="M 120.5,32.5 C 124.206,31.7103 127.872,30.7103 131.5,29.5C 134.246,30.0963 135.08,31.7629 134,34.5C 132.896,38.1668 131.229,41.5001 129,44.5C 127.129,43.0027 126.129,41.0027 126,38.5C 124.559,37.13 122.892,36.13 121,35.5C 120.517,34.552 120.351,33.552 120.5,32.5 Z"/></g>
<g><path style="opacity:0.84" fill="#fefffe" d="M 91.5,31.5 C 93.7409,32.2998 94.7409,33.9664 94.5,36.5C 100.707,36.0481 101.541,37.3814 97,40.5C 96.3333,41.8333 96.3333,43.1667 97,44.5C 99.3543,44.1084 101.854,44.1084 104.5,44.5C 104.34,46.1992 104.506,47.8659 105,49.5C 106.071,46.1335 108.404,44.8002 112,45.5C 115.532,44.808 117.865,46.1413 119,49.5C 120.766,60.4287 121.6,71.4287 121.5,82.5C 117.211,81.7505 115.211,79.0839 115.5,74.5C 114.178,74.67 113.011,74.3366 112,73.5C 111.667,69.8333 111.333,66.1667 111,62.5C 108.861,63.7691 106.695,63.7691 104.5,62.5C 102.638,60.1376 101.471,57.4709 101,54.5C 99.0846,58.6227 99.418,62.6227 102,66.5C 107.649,65.7997 110.649,68.4664 111,74.5C 111.972,76.3049 113.139,77.9716 114.5,79.5C 113.619,80.9705 112.286,81.8038 110.5,82C 115.515,89.5042 114.015,91.3375 106,87.5C 104.283,88.3881 103.116,87.7214 102.5,85.5C 102.667,84.8333 102.833,84.1667 103,83.5C 104.609,82.8534 106.109,82.02 107.5,81C 103.757,78.6035 100.257,75.7701 97,72.5C 98.27,75.6743 99.4367,79.0077 100.5,82.5C 99.5,82.5 98.5,82.5 97.5,82.5C 97.5,84.1667 97.5,85.8333 97.5,87.5C 96.0695,87.5792 94.7362,87.2458 93.5,86.5C 91.4099,87.5424 89.4099,88.3757 87.5,89C 86.0555,84.8805 87.3889,81.8805 91.5,80C 90.552,79.5172 89.552,79.3505 88.5,79.5C 87.4905,74.2039 87.3239,68.8706 88,63.5C 90.2672,62.0652 92.2672,62.3985 94,64.5C 94.5946,63.1011 94.4279,61.7678 93.5,60.5C 89.4449,59.5267 85.6115,58.86 82,58.5C 81.6238,61.9751 80.2905,64.9751 78,67.5C 77.0853,66.6721 76.4186,65.6721 76,64.5C 75.1611,68.6711 72.8278,71.6711 69,73.5C 68.3076,72.9747 67.8076,72.3081 67.5,71.5C 71.0768,63.3475 74.9101,55.3475 79,47.5C 81.3048,45.2835 83.9715,43.6169 87,42.5C 87.6667,41.5 87.6667,40.5 87,39.5C 85.7453,38.7894 84.5786,37.956 83.5,37C 88.0759,37.6719 90.7426,35.8385 91.5,31.5 Z M 90.5,43.5 C 93.8452,43.8641 94.8452,45.5308 93.5,48.5C 90.922,47.3576 89.922,45.6909 90.5,43.5 Z M 105.5,50.5 C 107.332,51.1405 107.665,52.1405 106.5,53.5C 105.614,52.675 105.281,51.675 105.5,50.5 Z M 79.5,53.5 C 80.7125,54.4971 80.5458,55.4971 79,56.5C 78.5304,55.4232 78.6971,54.4232 79.5,53.5 Z"/></g>
<g><path style="opacity:0.744" fill="#fefffe" d="M 64.5,41.5 C 62.0578,39.7742 59.3911,38.2742 56.5,37C 55.5494,36.2825 55.3828,35.4491 56,34.5C 60.4296,33.4064 64.5963,34.2398 68.5,37C 70.0093,40.6693 68.6759,42.1693 64.5,41.5 Z"/></g>
<g><path style="opacity:0.794" fill="#fefffe" d="M 64.5,41.5 C 66.0394,44.2721 65.3728,46.4387 62.5,48C 63.677,50.1578 63.0103,51.6578 60.5,52.5C 58.1465,51.6491 55.8132,51.1491 53.5,51C 55.556,53.4441 58.056,55.2774 61,56.5C 61.6667,57.5 61.6667,58.5 61,59.5C 57.6846,60.6031 54.8513,62.4364 52.5,65C 50.8659,65.4935 49.1992,65.6602 47.5,65.5C 47.3398,63.8008 47.5065,62.1341 48,60.5C 54.5537,58.6842 54.887,56.3509 49,53.5C 48.51,52.2068 48.3433,50.8734 48.5,49.5C 49.552,49.6495 50.552,49.4828 51.5,49C 50.6634,47.9887 50.33,46.8221 50.5,45.5C 54.1569,45.8799 55.1569,44.5466 53.5,41.5C 53.8333,39.8333 54.8333,38.8333 56.5,38.5C 58.9793,40.0761 61.646,41.0761 64.5,41.5 Z"/></g>
<g><path style="opacity:0.797" fill="#fefffe" d="M 134.5,38.5 C 140.15,38.3117 143.15,41.145 143.5,47C 142.055,50.1366 140.222,50.3033 138,47.5C 132.595,52.2154 130.428,51.2154 131.5,44.5C 132.795,43.9017 134.128,43.4017 135.5,43C 134.62,41.6439 134.286,40.1439 134.5,38.5 Z"/></g>
<g><path style="opacity:0.811" fill="#fefffe" d="M 138.5,50.5 C 140.5,50.5 142.5,50.5 144.5,50.5C 144.822,52.7224 144.155,54.5557 142.5,56C 145.032,56.6122 145.865,58.1122 145,60.5C 142.059,61.8124 139.226,63.3124 136.5,65C 137.337,66.0113 137.67,67.1779 137.5,68.5C 136.5,68.5 135.5,68.5 134.5,68.5C 134.33,67.1779 134.663,66.0113 135.5,65C 133.771,63.2111 133.104,61.0444 133.5,58.5C 134.552,58.6495 135.552,58.4828 136.5,58C 132.363,58.2033 130.863,56.37 132,52.5C 134.277,51.8828 136.444,51.2161 138.5,50.5 Z"/></g>
<g><path style="opacity:0.795" fill="#fefffe" d="M 222.5,56.5 C 227.833,56.5 233.167,56.5 238.5,56.5C 238.799,58.604 238.466,60.604 237.5,62.5C 236.614,61.675 236.281,60.675 236.5,59.5C 234.5,59.5 232.5,59.5 230.5,59.5C 230.5,61.5 230.5,63.5 230.5,65.5C 232.929,65.1156 235.263,64.449 237.5,63.5C 237.5,66.1667 237.5,68.8333 237.5,71.5C 236.5,71.5 235.5,71.5 234.5,71.5C 234.5,70.5 234.5,69.5 234.5,68.5C 233.167,68.5 231.833,68.5 230.5,68.5C 230.5,71.1667 230.5,73.8333 230.5,76.5C 231.5,76.5 232.5,76.5 233.5,76.5C 233.5,77.5 233.5,78.5 233.5,79.5C 229.788,78.5816 226.122,78.5816 222.5,79.5C 222.461,77.6412 223.294,76.3079 225,75.5C 225.667,70.1667 225.667,64.8333 225,59.5C 223.583,58.9221 222.75,57.9221 222.5,56.5 Z"/></g>
<g><path style="opacity:0.765" fill="#fefffe" d="M 250.5,56.5 C 252.144,56.2865 253.644,56.6198 255,57.5C 257.932,65.021 261.099,72.3543 264.5,79.5C 261.167,78.1667 257.833,78.1667 254.5,79.5C 254.36,77.8762 255.027,76.7096 256.5,76C 255.663,74.9887 255.33,73.8221 255.5,72.5C 252.833,72.5 250.167,72.5 247.5,72.5C 247.67,73.8221 247.337,74.9887 246.5,76C 248.886,76.2835 249.552,77.2835 248.5,79C 246.538,78.8593 244.704,79.026 243,79.5C 241.72,79.3865 240.887,78.7199 240.5,77.5C 241.934,76.7702 243.1,75.7702 244,74.5C 246.466,68.5763 248.632,62.5763 250.5,56.5 Z M 250.5,64.5 C 253.229,66.1386 253.562,67.8052 251.5,69.5C 250.833,69.1667 250.167,68.8333 249.5,68.5C 250.246,67.2638 250.579,65.9305 250.5,64.5 Z"/></g>
<g><path style="opacity:0.78" fill="#fefffe" d="M 275.5,56.5 C 280.43,56.1975 285.263,56.5308 290,57.5C 290.442,59.684 289.942,61.684 288.5,63.5C 284.887,57.4748 280.72,57.1415 276,62.5C 273.522,69.8787 276.022,74.5453 283.5,76.5C 285.689,76.4061 287.689,75.7394 289.5,74.5C 290.731,75.6507 290.731,76.8173 289.5,78C 275.202,82.3559 268.702,77.1892 270,62.5C 271.36,59.9774 273.193,57.9774 275.5,56.5 Z"/></g>
<g><path style="opacity:0.8" fill="#fefffe" d="M 294.5,56.5 C 298.226,56.1774 301.893,56.5108 305.5,57.5C 304.758,58.2868 303.925,58.9535 303,59.5C 302.333,64.1667 302.333,68.8333 303,73.5C 310.616,77.2426 313.782,74.7426 312.5,66C 312.391,62.9646 311.724,60.1313 310.5,57.5C 313.167,56.1667 315.833,56.1667 318.5,57.5C 317.758,58.2868 316.925,58.9535 316,59.5C 315.667,64.8333 315.333,70.1667 315,75.5C 311.257,79.2594 306.757,80.4261 301.5,79C 300.069,78.5348 298.903,77.7014 298,76.5C 297.667,71.1667 297.333,65.8333 297,60.5C 295.915,59.2644 295.082,57.9311 294.5,56.5 Z"/></g>
<g><path style="opacity:0.778" fill="#fefffe" d="M 322.5,56.5 C 325.898,56.1796 329.232,56.513 332.5,57.5C 330.599,63.6135 329.932,69.9468 330.5,76.5C 334.458,77.4277 337.125,76.0944 338.5,72.5C 339.474,74.7427 339.808,77.076 339.5,79.5C 334.431,79.0402 329.431,79.0402 324.5,79.5C 324.041,75.6266 324.041,71.6266 324.5,67.5C 324.338,63.6525 323.671,59.9858 322.5,56.5 Z"/></g>
<g><path style="opacity:0.779" fill="#fefffe" d="M 342.5,56.5 C 349.508,56.3337 356.508,56.5004 363.5,57C 362.897,58.8254 362.23,60.6587 361.5,62.5C 360.614,61.675 360.281,60.675 360.5,59.5C 358.833,59.5 357.167,59.5 355.5,59.5C 355.5,65.1667 355.5,70.8333 355.5,76.5C 358.957,76.6672 359.29,77.6672 356.5,79.5C 353.526,78.4233 350.526,78.4233 347.5,79.5C 349.244,73.0007 349.911,66.334 349.5,59.5C 346.722,59.0217 344.722,60.0217 343.5,62.5C 342.534,60.604 342.201,58.604 342.5,56.5 Z"/></g>
<g><path style="opacity:0.757" fill="#fefffe" d="M 374.5,56.5 C 375.978,56.238 377.311,56.5713 378.5,57.5C 381.36,65.2075 384.693,72.5408 388.5,79.5C 384.833,78.1667 381.167,78.1667 377.5,79.5C 380.854,72.8492 378.854,70.8492 371.5,73.5C 371.167,74.1667 370.833,74.8333 370.5,75.5C 371.853,76.5237 372.52,77.857 372.5,79.5C 369.833,78.1667 367.167,78.1667 364.5,79.5C 368.581,72.2919 371.914,64.6252 374.5,56.5 Z M 374.5,64.5 C 378.916,68.6781 378.25,70.1781 372.5,69C 373.582,67.6703 374.249,66.1703 374.5,64.5 Z"/></g>
<g><path style="opacity:0.794" fill="#fefffe" d="M 392.5,56.5 C 399.615,56.0753 406.615,56.5753 413.5,58C 417.328,63.6455 417.495,69.4789 414,75.5C 411.457,77.3543 408.624,78.5209 405.5,79C 401.752,79.0929 398.086,79.2596 394.5,79.5C 394.041,75.6266 394.041,71.6266 394.5,67.5C 394.338,63.6525 393.671,59.9858 392.5,56.5 Z M 400.5,59.5 C 409.974,59.0948 413.14,63.4281 410,72.5C 407.592,75.6201 404.426,76.9534 400.5,76.5C 400.5,70.8333 400.5,65.1667 400.5,59.5 Z"/></g>
<g><path style="opacity:0.831" fill="#fefffe" d="M 432.5,56.5 C 439.615,56.0753 446.615,56.5753 453.5,58C 458.296,63.0161 458.796,68.5161 455,74.5C 453.59,75.7875 452.09,76.9542 450.5,78C 445.145,79.4131 439.812,79.9131 434.5,79.5C 433.344,78.4239 433.511,77.4239 435,76.5C 435.667,70.8333 435.667,65.1667 435,59.5C 433.583,58.9221 432.75,57.9221 432.5,56.5 Z M 440.5,59.5 C 447.346,58.0711 451.013,60.7378 451.5,67.5C 451.155,74.5087 447.488,77.5087 440.5,76.5C 440.5,70.8333 440.5,65.1667 440.5,59.5 Z"/></g>
<g><path style="opacity:0.805" fill="#fefffe" d="M 461.5,56.5 C 467.167,56.5 472.833,56.5 478.5,56.5C 478.799,58.604 478.466,60.604 477.5,62.5C 475.575,59.828 472.908,58.828 469.5,59.5C 469.5,61.5 469.5,63.5 469.5,65.5C 471.821,65.7711 473.821,65.1045 475.5,63.5C 476.833,66.1667 476.833,68.8333 475.5,71.5C 474.614,70.675 474.281,69.675 474.5,68.5C 472.833,68.5 471.167,68.5 469.5,68.5C 469.5,71.1667 469.5,73.8333 469.5,76.5C 473.539,77.3403 476.539,76.007 478.5,72.5C 479.474,74.7427 479.808,77.076 479.5,79.5C 473.679,79.2157 468.012,78.8823 462.5,78.5C 462.808,77.6919 463.308,77.0253 464,76.5C 464.667,70.8333 464.667,65.1667 464,59.5C 462.583,58.9221 461.75,57.9221 461.5,56.5 Z"/></g>
<g><path style="opacity:0.626" fill="#fefffe" d="M 141.5,64.5 C 142.5,64.5 143.5,64.5 144.5,64.5C 144.778,66.3464 144.111,67.6798 142.5,68.5C 141.571,67.3112 141.238,65.9778 141.5,64.5 Z"/></g>
<g><path style="opacity:0.545" fill="#fefffe" d="M 56.5,65.5 C 57.5,65.5 58.5,65.5 59.5,65.5C 59.5,66.5 59.5,67.5 59.5,68.5C 56.5065,68.8543 55.5065,67.8543 56.5,65.5 Z"/></g>
<g><path style="opacity:0.678" fill="#fefffe" d="M 49.5,66.5 C 51.1667,66.5 52.8333,66.5 54.5,66.5C 54.5,67.8333 54.5,69.1667 54.5,70.5C 52.4727,70.6621 50.4727,70.4955 48.5,70C 48.0426,69.586 47.7093,69.086 47.5,68.5C 48.2427,67.8182 48.9094,67.1515 49.5,66.5 Z"/></g>
<g><path style="opacity:0.669" fill="#fefffe" d="M 132.5,69.5 C 134.086,70.4132 135.586,70.4132 137,69.5C 138.632,71.0268 138.799,72.6934 137.5,74.5C 134.196,74.3223 132.529,72.6557 132.5,69.5 Z"/></g>
<g><path style="opacity:0.827" fill="#fefffe" d="M 55.5,70.5 C 57.8333,70.5 60.1667,70.5 62.5,70.5C 62.8117,74.5636 63.8117,78.3969 65.5,82C 64.057,84.0777 64.7237,84.9111 67.5,84.5C 67.7135,86.1439 67.3802,87.6439 66.5,89C 69.1667,89.3333 71.8333,89.6667 74.5,90C 75.717,91.6477 76.5503,93.481 77,95.5C 78.0113,94.6634 79.1779,94.33 80.5,94.5C 80.238,95.9778 80.5713,97.3112 81.5,98.5C 83.198,97.3192 84.8647,97.3192 86.5,98.5C 85.5741,102.094 85.2408,105.76 85.5,109.5C 81.1729,107.358 76.5062,105.691 71.5,104.5C 70.5713,103.311 70.238,101.978 70.5,100.5C 65.2924,101.127 62.7924,98.7937 63,93.5C 62.323,95.689 61.1563,96.0224 59.5,94.5C 58.6858,92.2338 58.1858,89.9005 58,87.5C 54.1594,88.9948 52.826,87.6615 54,83.5C 55.6477,82.283 57.481,81.4497 59.5,81C 60.8333,80.3333 60.8333,79.6667 59.5,79C 55.9848,79.9165 52.3182,80.4165 48.5,80.5C 48.5231,75.3225 51.1898,73.1558 56.5,74C 55.6634,72.9887 55.33,71.8221 55.5,70.5 Z M 67.5,95.5 C 68.2506,94.4265 69.2506,94.2599 70.5,95C 69.6477,96.7284 68.6477,96.895 67.5,95.5 Z"/></g>
<g><path style="opacity:0.653" fill="#fefffe" d="M 140.5,72.5 C 141.833,72.5 143.167,72.5 144.5,72.5C 144.5,73.5 144.5,74.5 144.5,75.5C 143.167,75.5 141.833,75.5 140.5,75.5C 140.5,74.5 140.5,73.5 140.5,72.5 Z"/></g>
<g><path style="opacity:0.786" fill="#fefffe" d="M 131.5,74.5 C 134.596,75.5467 137.596,76.88 140.5,78.5C 141.452,80.0453 141.785,81.712 141.5,83.5C 138.214,83.1606 135.214,82.3273 132.5,81C 133.523,84.2124 135.19,87.0457 137.5,89.5C 137.167,91.1667 136.167,92.1667 134.5,92.5C 131.807,91.6547 129.141,91.1547 126.5,91C 127.653,92.883 129.319,93.7163 131.5,93.5C 131.047,98.2952 128.381,101.295 123.5,102.5C 117.708,101.076 115.708,97.5758 117.5,92C 120.044,90.908 122.711,90.2414 125.5,90C 124.408,86.7973 125.741,85.1306 129.5,85C 128.941,84.2753 128.608,83.4419 128.5,82.5C 129.803,79.9579 130.803,77.2912 131.5,74.5 Z M 121.5,94.5 C 123.085,95.0024 123.585,96.0024 123,97.5C 121.961,96.7562 121.461,95.7562 121.5,94.5 Z"/></g>
<g><path style="opacity:0.592" fill="#fefffe" d="M 420.5,86.5 C 422.604,86.2011 424.604,86.5344 426.5,87.5C 424.144,89.69 421.644,91.69 419,93.5C 418.308,92.9747 417.808,92.3081 417.5,91.5C 418.952,90.0603 419.952,88.3936 420.5,86.5 Z"/></g>
<g><path style="opacity:0.782" fill="#fefffe" d="M 279.5,93.5 C 283.56,93.4847 287.56,93.9847 291.5,95C 292.59,97.279 292.256,99.4457 290.5,101.5C 287.446,96.362 283.28,95.362 278,98.5C 274.667,103.167 274.667,107.833 278,112.5C 281.676,115.448 284.843,115.114 287.5,111.5C 286.482,110.148 285.149,109.148 283.5,108.5C 286.833,107.167 290.167,107.167 293.5,108.5C 292.607,111.084 292.274,113.751 292.5,116.5C 287.195,117.442 281.861,117.609 276.5,117C 269.67,112.839 267.836,107.005 271,99.5C 273.322,96.6047 276.155,94.6047 279.5,93.5 Z"/></g>
<g><path style="opacity:0.831" fill="#fefffe" d="M 223.5,94.5 C 227.226,94.1774 230.893,94.5108 234.5,95.5C 233.478,96.354 232.645,97.354 232,98.5C 231.333,103.167 231.333,107.833 232,112.5C 233.438,113.9 234.271,115.567 234.5,117.5C 230.833,117.5 227.167,117.5 223.5,117.5C 223.5,116.5 223.5,115.5 223.5,114.5C 224.5,114.5 225.5,114.5 226.5,114.5C 226.5,108.5 226.5,102.5 226.5,96.5C 224.821,96.7148 223.821,96.0481 223.5,94.5 Z"/></g>
<g><path style="opacity:0.823" fill="#fefffe" d="M 239.5,94.5 C 242.187,94.3359 244.854,94.5026 247.5,95C 251.215,99.593 255.048,104.093 259,108.5C 259.667,105.167 259.667,101.833 259,98.5C 258.355,97.354 257.522,96.354 256.5,95.5C 259.167,94.1667 261.833,94.1667 264.5,95.5C 263.478,96.354 262.645,97.354 262,98.5C 261.294,104.87 261.461,111.203 262.5,117.5C 261.127,117.657 259.793,117.49 258.5,117C 254,111.833 249.5,106.667 245,101.5C 244.053,107.159 244.886,112.492 247.5,117.5C 244.833,117.5 242.167,117.5 239.5,117.5C 239.461,115.641 240.294,114.308 242,113.5C 242.667,108.167 242.667,102.833 242,97.5C 240.583,96.9221 239.75,95.9221 239.5,94.5 Z"/></g>
<g><path style="opacity:0.797" fill="#fefffe" d="M 298.5,94.5 C 304.167,94.5 309.833,94.5 315.5,94.5C 315.799,96.604 315.466,98.604 314.5,100.5C 313.614,99.675 313.281,98.675 313.5,97.5C 311.167,97.5 308.833,97.5 306.5,97.5C 306.5,99.5 306.5,101.5 306.5,103.5C 309.288,103.132 311.954,102.632 314.5,102C 313.167,104.333 313.167,106.667 314.5,109C 313.552,109.483 312.552,109.649 311.5,109.5C 311.5,108.5 311.5,107.5 311.5,106.5C 309.833,106.5 308.167,106.5 306.5,106.5C 306.5,109.167 306.5,111.833 306.5,114.5C 308.857,114.663 311.19,114.497 313.5,114C 314.071,112.795 314.738,111.628 315.5,110.5C 316.474,112.743 316.808,115.076 316.5,117.5C 310.794,117.829 305.128,117.495 299.5,116.5C 299.808,115.692 300.308,115.025 301,114.5C 301.667,108.833 301.667,103.167 301,97.5C 299.583,96.9221 298.75,95.9221 298.5,94.5 Z"/></g>
<g><path style="opacity:0.832" fill="#fefffe" d="M 321.5,94.5 C 324.187,94.3359 326.854,94.5026 329.5,95C 333.215,99.593 337.048,104.093 341,108.5C 341.667,105.167 341.667,101.833 341,98.5C 340.355,97.354 339.522,96.354 338.5,95.5C 341.167,94.1667 343.833,94.1667 346.5,95.5C 345.758,96.2868 344.925,96.9535 344,97.5C 343.207,103.885 343.374,110.218 344.5,116.5C 343.833,116.833 343.167,117.167 342.5,117.5C 339.594,116.103 337.094,114.103 335,111.5C 332.333,108.167 329.667,104.833 327,101.5C 325.933,107.203 326.766,112.536 329.5,117.5C 326.833,117.5 324.167,117.5 321.5,117.5C 321.461,115.641 322.294,114.308 324,113.5C 324.667,108.167 324.667,102.833 324,97.5C 322.583,96.9221 321.75,95.9221 321.5,94.5 Z"/></g>
<g><path style="opacity:0.786" fill="#fefffe" d="M 351.5,94.5 C 354.898,94.1796 358.232,94.513 361.5,95.5C 360.256,98.6382 359.589,101.972 359.5,105.5C 359.734,109.631 360.4,113.631 361.5,117.5C 358.167,117.5 354.833,117.5 351.5,117.5C 354.101,109.793 354.101,102.127 351.5,94.5 Z"/></g>
<g><path style="opacity:0.802" fill="#fefffe" d="M 366.5,94.5 C 372.167,94.5 377.833,94.5 383.5,94.5C 383.799,96.604 383.466,98.604 382.5,100.5C 380.575,97.828 377.908,96.828 374.5,97.5C 374.5,99.5 374.5,101.5 374.5,103.5C 376.821,103.771 378.821,103.104 380.5,101.5C 381.833,104.167 381.833,106.833 380.5,109.5C 379.278,107.022 377.278,106.022 374.5,106.5C 374.5,109.167 374.5,111.833 374.5,114.5C 378.514,115.176 381.514,113.843 383.5,110.5C 384.474,112.743 384.808,115.076 384.5,117.5C 378.794,117.829 373.128,117.495 367.5,116.5C 367.808,115.692 368.308,115.025 369,114.5C 369.667,108.833 369.667,103.167 369,97.5C 367.583,96.9221 366.75,95.9221 366.5,94.5 Z"/></g>
<g><path style="opacity:0.782" fill="#fefffe" d="M 388.5,94.5 C 394.509,94.3338 400.509,94.5005 406.5,95C 408.156,99.0734 407.489,102.74 404.5,106C 406.495,110.18 408.829,114.013 411.5,117.5C 409.143,117.663 406.81,117.497 404.5,117C 402.208,113.584 400.041,110.084 398,106.5C 397.833,107.833 397.667,109.167 397.5,110.5C 398.021,112.924 398.688,115.257 399.5,117.5C 395.833,117.5 392.167,117.5 388.5,117.5C 388.5,116.5 388.5,115.5 388.5,114.5C 389.5,114.5 390.5,114.5 391.5,114.5C 391.5,108.5 391.5,102.5 391.5,96.5C 389.821,96.7148 388.821,96.0481 388.5,94.5 Z M 397.5,96.5 C 402.719,97.3233 403.719,99.8233 400.5,104C 399.552,104.483 398.552,104.649 397.5,104.5C 397.5,101.833 397.5,99.1667 397.5,96.5 Z"/></g>
<g><path style="opacity:0.767" fill="#fefffe" d="M 415.5,94.5 C 419.226,94.1774 422.893,94.5108 426.5,95.5C 425.675,96.3857 424.675,96.719 423.5,96.5C 423.171,102.537 423.504,108.537 424.5,114.5C 425.5,114.833 426.167,115.5 426.5,116.5C 422.893,117.489 419.226,117.823 415.5,117.5C 418.101,109.793 418.101,102.127 415.5,94.5 Z"/></g>
<g><path style="opacity:0.747" fill="#fefffe" d="M 440.5,94.5 C 441.978,94.238 443.311,94.5713 444.5,95.5C 447.36,103.207 450.693,110.541 454.5,117.5C 450.833,117.5 447.167,117.5 443.5,117.5C 443.48,115.857 444.147,114.524 445.5,113.5C 443.318,110.451 440.484,109.784 437,111.5C 437.152,113.519 437.652,115.519 438.5,117.5C 435.833,117.5 433.167,117.5 430.5,117.5C 434.21,110.05 437.543,102.383 440.5,94.5 Z M 440.5,102.5 C 441.931,103.78 442.598,105.447 442.5,107.5C 438.247,107.88 437.58,106.213 440.5,102.5 Z"/></g>
<g><path style="opacity:0.812" fill="#fefffe" d="M 110.5,96.5 C 111.873,96.3433 113.207,96.51 114.5,97C 115.958,99.46 117.791,101.627 120,103.5C 120.483,104.448 120.649,105.448 120.5,106.5C 116.594,104.631 113.594,105.464 111.5,109C 110.207,109.49 108.873,109.657 107.5,109.5C 107.335,106.15 107.502,102.817 108,99.5C 108.698,98.3094 109.531,97.3094 110.5,96.5 Z"/></g>
<g><path style="opacity:0.821" fill="#fefffe" d="M 91.5,98.5 C 93.1238,98.3601 94.2904,99.0267 95,100.5C 97.2431,98.718 99.7431,98.218 102.5,99C 103.337,100.011 103.67,101.178 103.5,102.5C 102.127,102.343 100.793,102.51 99.5,103C 100.308,104.706 101.641,105.539 103.5,105.5C 103.859,107.766 103.192,109.599 101.5,111C 98.0074,112.004 94.8408,111.504 92,109.5C 90.3005,110.406 88.4672,110.739 86.5,110.5C 87.5838,106.323 89.2505,102.323 91.5,98.5 Z"/></g>
<g><path style="opacity:0.805" fill="#fefffe" d="M 22.5,127.5 C 27.1667,127.5 31.8333,127.5 36.5,127.5C 36.5,128.5 36.5,129.5 36.5,130.5C 34.8762,130.36 33.7096,131.027 33,132.5C 32.2608,138.558 32.5941,144.558 34,150.5C 38.2685,153.383 42.2685,153.05 46,149.5C 46.4995,143.175 46.6662,136.842 46.5,130.5C 45.1667,130.5 43.8333,130.5 42.5,130.5C 42.5,129.5 42.5,128.5 42.5,127.5C 46.1667,127.5 49.8333,127.5 53.5,127.5C 53.5,128.5 53.5,129.5 53.5,130.5C 52.5,130.5 51.5,130.5 50.5,130.5C 50.839,137.574 50.339,144.574 49,151.5C 46.7377,155.931 43.071,157.931 38,157.5C 33.9001,157.635 30.4001,156.302 27.5,153.5C 26.7002,146.216 26.2002,138.883 26,131.5C 24.9887,130.663 23.8221,130.33 22.5,130.5C 22.5,129.5 22.5,128.5 22.5,127.5 Z"/></g>
<g><path style="opacity:0.827" fill="#fefffe" d="M 55.5,127.5 C 58.5184,127.335 61.5184,127.502 64.5,128C 69.3097,134.444 74.4764,140.611 80,146.5C 80.6667,141.5 80.6667,136.5 80,131.5C 78.9887,130.663 77.8221,130.33 76.5,130.5C 76.5,129.5 76.5,128.5 76.5,127.5C 79.8333,127.5 83.1667,127.5 86.5,127.5C 86.5,128.5 86.5,129.5 86.5,130.5C 85.5,130.5 84.5,130.5 83.5,130.5C 83.8315,139.525 83.4982,148.525 82.5,157.5C 79.8121,156.995 77.6454,155.662 76,153.5C 71.711,147.542 67.0443,141.876 62,136.5C 61.3742,142.195 61.5409,147.862 62.5,153.5C 63.5,153.5 64.5,153.5 65.5,153.5C 65.5,154.5 65.5,155.5 65.5,156.5C 62.1667,156.5 58.8333,156.5 55.5,156.5C 55.5,155.5 55.5,154.5 55.5,153.5C 56.5,153.5 57.5,153.5 58.5,153.5C 58.5,145.833 58.5,138.167 58.5,130.5C 57.5,130.5 56.5,130.5 55.5,130.5C 55.5,129.5 55.5,128.5 55.5,127.5 Z"/></g>
<g><path style="opacity:0.813" fill="#fefffe" d="M 95.5,127.5 C 99.8461,127.334 104.179,127.501 108.5,128C 109.435,130.381 109.768,132.881 109.5,135.5C 108.5,135.5 107.5,135.5 106.5,135.5C 105.826,130.849 103.159,129.349 98.5,131C 95.8333,133.333 95.8333,135.667 98.5,138C 101.529,138.539 104.529,139.206 107.5,140C 111.212,142.513 112.378,146.013 111,150.5C 108.66,155.619 104.66,157.952 99,157.5C 91.328,158.326 88.4947,154.993 90.5,147.5C 91.5,147.5 92.5,147.5 93.5,147.5C 93.3847,151.887 95.5514,154.22 100,154.5C 105.002,153.017 106.169,150.183 103.5,146C 100.899,145.08 98.2321,144.413 95.5,144C 90.774,141.612 89.274,137.778 91,132.5C 92.025,130.313 93.525,128.646 95.5,127.5 Z"/></g>
<g><path style="opacity:0.837" fill="#fefffe" d="M 113.5,127.5 C 122.167,127.5 130.833,127.5 139.5,127.5C 139.5,130.167 139.5,132.833 139.5,135.5C 138.5,135.5 137.5,135.5 136.5,135.5C 136.5,134.167 136.5,132.833 136.5,131.5C 134.167,131.5 131.833,131.5 129.5,131.5C 129.334,138.175 129.5,144.842 130,151.5C 130.71,152.973 131.876,153.64 133.5,153.5C 133.5,154.5 133.5,155.5 133.5,156.5C 128.833,156.5 124.167,156.5 119.5,156.5C 119.5,155.5 119.5,154.5 119.5,153.5C 120.822,153.67 121.989,153.337 123,152.5C 123.5,145.508 123.666,138.508 123.5,131.5C 121.167,131.5 118.833,131.5 116.5,131.5C 116.5,132.833 116.5,134.167 116.5,135.5C 115.5,135.5 114.5,135.5 113.5,135.5C 113.5,132.833 113.5,130.167 113.5,127.5 Z"/></g>
<g><path style="opacity:0.807" fill="#fefffe" d="M 151.5,127.5 C 153.288,127.215 154.955,127.548 156.5,128.5C 160.1,138.362 164.434,147.695 169.5,156.5C 165.167,156.5 160.833,156.5 156.5,156.5C 159.528,149.015 156.862,146.181 148.5,148C 145.581,150.948 145.914,153.448 149.5,155.5C 145.833,156.833 142.167,156.833 138.5,155.5C 140.342,154.158 141.842,152.491 143,150.5C 146.139,142.913 148.972,135.247 151.5,127.5 Z M 151.5,137.5 C 153.447,139.216 154.781,141.383 155.5,144C 153.421,144.808 151.421,144.641 149.5,143.5C 150.372,141.55 151.039,139.55 151.5,137.5 Z"/></g>
</svg>
