<?xml version="1.0" standalone="no"?>
<!DOCTYPE svg PUBLIC "-//W3C//DTD SVG 20010904//EN"
 "http://www.w3.org/TR/2001/REC-SVG-20010904/DTD/svg10.dtd">
<svg version="1.0" xmlns="http://www.w3.org/2000/svg"
 width="190.000000pt" height="190.000000pt" viewBox="0 0 190.000000 190.000000"
 preserveAspectRatio="xMidYMid meet">

<g transform="translate(0.000000,190.000000) scale(0.100000,-0.100000)"
fill="#000000" stroke="none">
<path d="M1043 1845 c7 -46 -1 -56 -23 -30 -24 29 -40 18 -40 -29 0 -46 12
-63 43 -58 20 4 22 -9 5 -27 -11 -10 -8 -16 11 -32 28 -23 40 -24 69 -3 19 13
22 22 17 47 l-6 32 20 -25 20 -25 15 37 c28 66 17 100 -25 78 -28 -15 -35 -6
-20 26 16 36 -1 54 -52 54 l-40 0 6 -45z"/>
<path d="M702 1860 c-25 -16 -32 -25 -26 -38 4 -9 16 -44 27 -77 33 -100 36
-105 53 -105 10 0 26 7 36 17 16 14 24 14 59 4 53 -16 89 4 89 49 0 30 -17 39
-36 20 -5 -5 -15 -6 -21 -2 -10 6 -10 15 -1 38 6 17 8 42 4 57 -13 55 -120 76
-184 37z m92 -76 c8 -20 -1 -34 -20 -34 -8 0 -14 10 -14 25 0 28 24 34 34 9z"/>
<path d="M1252 1821 c-20 -12 -11 -55 12 -59 27 -6 48 25 35 49 -10 20 -26 24
-47 10z"/>
<path d="M549 1792 c-25 -23 -33 -38 -36 -79 -5 -45 -2 -54 25 -84 25 -28 37
-34 69 -33 50 2 83 19 83 44 0 23 -36 36 -56 19 -23 -19 -29 -3 -10 26 14 21
15 29 5 41 -6 8 -18 14 -26 14 -10 0 -11 4 -3 19 15 29 12 61 -5 61 -8 0 -29
-13 -46 -28z"/>
<path d="M1411 1750 c-45 -11 -84 -41 -91 -71 -13 -50 25 -140 61 -147 8 -1
23 11 33 28 18 31 18 32 -3 54 -25 27 -26 39 -6 56 13 11 21 9 45 -8 36 -27
52 -28 74 -3 21 23 11 47 -30 80 -29 23 -32 23 -83 11z"/>
<path d="M419 1719 c-20 -20 -21 -56 -3 -121 6 -22 -12 -23 -46 -3 -14 8 -34
14 -46 15 -23 0 -58 -33 -52 -50 2 -6 33 -22 68 -34 36 -13 79 -29 97 -37 28
-12 34 -11 52 6 26 23 27 55 1 105 -11 22 -20 52 -20 67 0 38 -10 73 -21 73
-5 0 -18 -9 -30 -21z"/>
<path d="M1211 1696 c-21 -26 -9 -51 24 -51 27 0 30 3 30 30 0 23 -5 31 -21
33 -11 2 -26 -4 -33 -12z"/>
<path d="M1537 1556 c-53 -18 -100 -36 -103 -39 -4 -4 1 -18 10 -32 12 -19 25
-25 51 -25 28 0 37 -5 45 -24 5 -13 6 -33 3 -44 -8 -30 14 -64 40 -60 31 4
113 207 97 238 -14 26 -25 25 -143 -14z m78 -47 c10 -30 -11 -48 -32 -27 -13
14 -14 20 -3 32 17 22 27 20 35 -5z"/>
<path d="M852 1505 l-22 -45 -57 0 c-54 -1 -57 -2 -38 -16 62 -47 64 -50 52
-89 -6 -21 -16 -39 -22 -40 -5 -2 -22 -6 -38 -9 -37 -9 -100 -67 -133 -124
-15 -26 -65 -128 -111 -227 -85 -185 -91 -216 -35 -183 47 28 82 89 108 188
24 91 81 200 104 200 21 0 8 -40 -35 -106 -39 -59 -45 -75 -45 -121 0 -38 4
-53 14 -53 23 0 36 25 52 101 15 73 54 154 62 130 2 -7 -4 -21 -14 -32 -16
-18 -16 -21 -2 -35 15 -15 17 -14 28 6 l12 22 15 -22 16 -23 18 24 19 24 0
-29 c0 -28 1 -28 44 -22 56 9 65 -4 94 -121 26 -104 32 -114 119 -208 49 -53
77 -76 87 -72 20 8 20 30 0 68 -21 42 -9 50 13 10 45 -81 52 -89 83 -96 44
-10 60 8 33 37 -32 35 -53 84 -53 122 0 65 -96 136 -142 107 -11 -7 -21 -11
-23 -9 -2 2 -13 31 -24 65 -25 73 -27 143 -6 183 13 25 19 28 49 23 28 -4 35
-2 41 16 3 12 1 37 -5 55 -6 19 -10 47 -8 63 2 22 -1 27 -15 25 -9 -2 -33 1
-53 7 -42 11 -90 -2 -104 -29 -14 -26 -12 -40 5 -40 8 0 15 -7 15 -15 0 -8 -9
-15 -19 -15 -23 0 -97 55 -118 87 -14 21 -13 23 18 42 l32 20 36 -25 36 -24 5
45 c4 41 10 49 50 75 l45 30 -50 0 c-63 0 -70 5 -85 58 -7 23 -16 42 -20 42
-3 0 -16 -20 -28 -45z m148 -235 c0 -5 -7 -10 -16 -10 -8 0 -12 5 -9 10 3 6
10 10 16 10 5 0 9 -4 9 -10z"/>
<path d="M193 1503 c-7 -2 -13 -13 -13 -24 0 -15 20 -29 78 -55 95 -44 133
-52 151 -30 22 26 5 45 -75 81 -71 33 -111 41 -141 28z"/>
<path d="M1723 1413 c-15 -6 -17 -49 -3 -58 19 -12 9 -24 -35 -41 -50 -19 -70
-44 -60 -74 13 -41 63 -44 94 -6 17 21 49 20 73 -1 15 -13 23 -14 43 -5 30 14
28 33 -11 120 -26 59 -61 82 -101 65z"/>
<path d="M141 1386 c-12 -12 -21 -27 -21 -34 0 -14 32 -32 59 -32 12 0 21 -4
21 -10 0 -11 -27 -18 -80 -22 -30 -3 -35 -7 -38 -30 -4 -33 18 -48 112 -79
l69 -23 19 24 c17 21 17 25 3 40 -21 23 -19 28 19 44 36 15 55 51 38 68 -11
11 -107 53 -154 68 -21 6 -30 4 -47 -14z"/>
<path d="M1185 1271 c-11 -5 -28 -17 -38 -28 -17 -19 -16 -21 3 -46 11 -14 20
-36 20 -50 0 -22 -5 -25 -50 -31 -56 -7 -75 -28 -58 -61 6 -11 14 -22 18 -25
4 -3 17 -24 29 -47 25 -49 41 -55 42 -15 0 27 1 27 11 5 6 -13 19 -23 30 -23
14 0 18 8 19 43 2 40 2 41 8 9 7 -40 19 -44 35 -13 11 19 14 21 19 7 4 -9 2
-28 -3 -42 -11 -28 -11 -141 -1 -189 7 -32 38 -46 52 -24 4 7 5 62 2 123 -3
64 -2 108 3 103 5 -5 11 -75 14 -155 5 -115 10 -155 24 -185 21 -42 41 -56 59
-38 28 28 -20 606 -55 648 -30 37 -131 55 -183 34z"/>
<path d="M34 1175 c-8 -20 2 -32 47 -61 35 -22 40 -29 37 -57 -3 -29 -8 -34
-53 -48 -45 -14 -50 -19 -53 -49 -6 -55 47 -69 89 -24 13 15 52 39 87 55 74
34 83 62 30 94 -18 10 -55 38 -82 62 -49 44 -92 56 -102 28z"/>
<path d="M1782 1168 c-7 -7 -36 -13 -64 -13 -60 0 -75 -15 -59 -57 8 -23 17
-28 43 -28 32 0 67 -14 58 -23 -3 -3 -22 -12 -42 -20 -30 -13 -38 -21 -38 -42
0 -34 17 -65 35 -65 8 0 30 11 49 23 19 13 55 30 80 37 41 11 46 16 46 40 0
22 -6 30 -30 39 -39 13 -38 39 3 54 24 9 32 34 17 52 -15 18 -81 20 -98 3z"/>
<path d="M809 933 c-10 -12 -13 -46 -12 -132 3 -155 6 -164 43 -156 24 5 30 3
30 -10 0 -16 -32 -52 -64 -70 -18 -10 -35 -68 -28 -97 5 -23 24 -23 39 1 14
23 89 37 109 20 11 -9 18 -8 29 1 23 19 18 56 -11 79 -31 25 -23 49 9 26 27
-19 67 -20 67 -1 0 7 -12 31 -27 52 -37 56 -69 130 -83 198 -18 86 -68 130
-101 89z"/>
<path d="M1831 896 c-9 -11 -8 -17 5 -30 21 -22 39 -15 39 15 0 28 -26 37 -44
15z"/>
<path d="M1702 887 c-9 -10 -8 -18 2 -32 18 -25 48 -13 44 17 -4 27 -30 35
-46 15z"/>
<path d="M187 883 c-14 -13 -6 -33 13 -33 13 0 20 7 20 20 0 19 -20 27 -33 13z"/>
<path d="M37 853 c-4 -3 -7 -15 -7 -25 0 -14 8 -18 39 -18 39 0 68 20 56 40
-7 11 -78 14 -88 3z"/>
<path d="M1670 788 c0 -38 15 -52 48 -45 20 4 32 2 35 -6 9 -25 19 3 12 33 -6
29 -10 32 -36 26 -15 -3 -31 -1 -34 4 -11 18 -25 10 -25 -12z"/>
<path d="M200 793 c-8 -2 -21 -7 -29 -9 -11 -4 -11 -8 3 -22 31 -35 15 -52
-49 -52 -75 0 -115 -41 -79 -81 23 -26 38 -24 113 11 59 28 65 29 82 14 9 -8
28 -14 41 -12 30 4 35 37 13 94 -21 56 -49 73 -95 57z"/>
<path d="M1819 754 c-9 -11 -10 -20 -3 -32 15 -23 29 -25 48 -7 12 12 13 21 6
36 -13 23 -33 25 -51 3z"/>
<path d="M1636 684 c-13 -34 -3 -44 80 -90 83 -45 88 -46 100 -29 26 35 17 55
-33 77 -27 11 -60 29 -75 39 -32 23 -64 24 -72 3z"/>
<path d="M240 589 c-109 -51 -115 -54 -118 -72 -2 -9 8 -28 23 -43 24 -24 27
-25 44 -10 21 19 51 12 51 -12 0 -9 -6 -31 -12 -50 -12 -31 -11 -35 11 -53 13
-10 27 -19 31 -19 5 0 22 24 39 54 17 30 39 57 51 61 28 9 45 42 30 61 -9 10
-24 12 -51 8 -46 -8 -51 7 -17 43 22 23 22 24 2 43 -19 19 -20 19 -84 -11z"/>
<path d="M1597 603 c-12 -11 -7 -57 8 -83 21 -37 19 -53 -4 -40 -11 5 -29 10
-40 10 -22 0 -55 -40 -43 -52 4 -4 47 -19 96 -33 84 -24 90 -25 107 -9 24 22
24 36 -2 60 -12 10 -32 44 -46 74 -28 65 -57 93 -76 73z"/>
<path d="M1143 566 c-62 -32 -69 -40 -55 -71 9 -19 19 -26 35 -24 12 2 32 -3
45 -9 19 -11 23 -10 28 3 8 19 23 19 45 -1 17 -15 39 -12 39 5 0 16 -74 121
-85 120 -5 -1 -29 -11 -52 -23z"/>
<path d="M394 421 c-11 -5 -33 -23 -47 -41 -56 -66 -19 -160 62 -160 41 0 102
32 117 63 22 42 20 95 -4 119 -22 23 -95 33 -128 19z m56 -81 c8 -16 6 -24
-10 -40 -12 -12 -27 -19 -33 -17 -20 6 -21 50 -1 64 24 18 31 16 44 -7z"/>
<path d="M1387 379 c-44 -39 -41 -92 9 -142 62 -62 116 -59 191 11 43 40 49
92 11 92 -12 0 -32 12 -44 27 -17 22 -31 27 -81 31 -52 4 -63 1 -86 -19z m93
-49 c17 -9 18 -14 8 -38 -16 -37 -16 -36 -33 -22 -17 14 -21 70 -4 70 6 0 19
-5 29 -10z"/>
<path d="M553 272 c-26 -26 -61 -57 -78 -69 -26 -18 -28 -23 -15 -37 28 -35
50 -39 76 -15 l23 22 10 -26 c14 -35 29 -42 51 -22 18 16 19 15 29 -23 9 -30
17 -41 38 -46 14 -4 29 -3 33 1 4 4 11 54 14 111 6 93 5 102 -10 102 -10 0
-31 -12 -46 -27 -24 -23 -30 -25 -38 -13 -5 8 -7 23 -4 33 7 24 -5 57 -21 57
-8 0 -36 -22 -62 -48z"/>
<path d="M1242 276 c-19 -7 -37 -18 -42 -26 -11 -20 -31 -180 -24 -191 15 -25
94 8 94 40 0 5 14 14 31 20 24 8 35 7 53 -4 25 -16 51 -12 60 10 2 7 -17 33
-45 59 -27 25 -54 56 -60 70 -15 32 -26 36 -67 22z m38 -90 c0 -8 -4 -18 -10
-21 -5 -3 -10 3 -10 14 0 12 5 21 10 21 6 0 10 -6 10 -14z"/>
<path d="M985 234 c-22 -8 -44 -19 -49 -24 -15 -15 -23 -12 -29 11 -10 38 -40
17 -77 -53 -20 -38 -41 -73 -48 -80 -16 -16 -15 -43 3 -58 12 -10 22 -8 51 11
l37 23 21 -27 c21 -26 24 -26 90 -20 89 8 124 39 97 82 -8 12 -15 13 -34 4
-30 -14 -40 -7 -26 19 12 23 4 38 -22 38 -10 0 -19 5 -19 10 0 6 17 10 38 10
35 0 62 14 62 31 0 12 -31 39 -43 38 -7 0 -30 -7 -52 -15z m-89 -130 c-5 -13
-10 -14 -18 -6 -6 6 -8 18 -4 28 5 13 10 14 18 6 6 -6 8 -18 4 -28z"/>
</g>
</svg>
